{"glyphs":{"0":{"ha":550,"x_min":21,"x_max":529,"o":"m 275 1125 q 465 1050 401 1125 q 529 811 529 975 l 529 300 q 465 61 529 136 q 275 -14 401 -14 q 85 61 149 -14 q 21 300 21 136 l 21 811 q 85 1050 21 975 q 275 1125 149 1125 m 275 940 q 219 911 233 940 q 206 801 206 882 l 206 538 l 344 763 l 344 801 q 331 911 344 882 q 275 940 317 940 m 275 171 q 331 200 317 171 q 344 310 344 229 l 344 575 l 206 350 l 206 310 q 219 200 206 229 q 275 171 233 171 z "},"1":{"ha":522,"x_min":21,"x_max":501,"o":"m 354 1111 l 354 185 l 501 185 l 501 0 l 21 0 l 21 185 l 168 185 l 168 885 q 119 838 149 853 q 21 822 90 822 l 21 996 q 192 1111 146 996 l 354 1111 z "},"2":{"ha":564,"x_min":21,"x_max":543,"o":"m 322 435 q 249 362 272 392 q 215 292 225 332 q 206 185 206 253 l 543 185 l 543 0 l 21 0 l 21 185 q 45 372 21 300 q 108 486 69 443 q 221 588 147 529 q 324 692 290 643 q 358 818 358 742 q 342 912 358 883 q 294 940 326 940 q 238 903 257 940 q 219 760 219 865 l 35 760 q 99 1038 35 951 q 294 1125 163 1125 q 543 818 543 1125 q 511 656 543 725 q 437 542 479 586 q 322 435 394 497 z "},"3":{"ha":564,"x_min":21,"x_max":543,"o":"m 407 564 q 543 272 543 493 q 478 63 543 139 q 285 -14 413 -14 q 86 73 151 -14 q 21 342 21 160 l 206 342 q 226 208 206 244 q 285 171 247 171 q 358 300 358 171 q 345 412 358 372 q 305 467 332 451 q 232 483 278 483 l 178 483 l 178 644 l 232 644 q 329 681 300 644 q 358 811 358 717 q 285 940 358 940 q 227 906 249 940 q 206 783 206 871 l 21 783 q 87 1041 21 957 q 285 1125 153 1125 q 478 1049 413 1125 q 543 839 543 972 q 407 564 543 631 z "},"4":{"ha":529,"x_min":21,"x_max":508,"o":"m 426 1111 l 426 394 l 508 394 l 508 208 l 426 208 l 426 0 l 242 0 l 242 208 l 21 208 l 21 394 l 242 1111 l 426 1111 m 242 394 l 242 775 l 125 394 l 242 394 z "},"5":{"ha":564,"x_min":21,"x_max":543,"o":"m 344 744 q 543 369 543 744 q 481 81 543 176 q 283 -14 418 -14 q 87 72 153 -14 q 21 342 21 158 l 206 342 q 226 210 206 250 q 283 171 246 171 q 340 215 322 171 q 358 369 358 258 q 340 519 358 478 q 286 560 322 560 q 208 472 225 560 l 35 472 l 63 1111 l 499 1111 l 499 926 l 225 926 l 211 686 q 344 744 274 744 z "},"6":{"ha":564,"x_min":21,"x_max":543,"o":"m 347 744 q 492 652 442 744 q 543 365 543 560 q 478 79 543 172 q 282 -14 414 -14 q 85 80 149 -14 q 21 369 22 174 l 21 736 q 47 962 22 876 q 127 1086 72 1047 q 272 1125 182 1125 q 455 1046 394 1125 q 515 825 515 967 l 331 825 q 317 913 331 885 q 272 940 304 940 q 222 908 238 940 q 206 790 206 875 l 206 665 q 347 744 263 744 m 282 171 q 339 213 319 171 q 358 365 358 254 q 340 519 358 478 q 285 560 321 560 q 226 517 246 560 q 206 369 206 475 q 225 213 206 256 q 282 171 244 171 z "},"7":{"ha":536,"x_min":21,"x_max":515,"o":"m 21 926 l 21 1111 l 515 1111 l 515 926 q 383 637 428 785 q 324 341 338 489 q 310 0 310 193 l 125 0 q 142 338 125 188 q 211 635 160 488 q 358 926 263 783 l 21 926 z "},"8":{"ha":550,"x_min":21,"x_max":529,"o":"m 386 582 q 489 492 449 556 q 529 322 529 429 l 529 293 q 275 -14 529 -14 q 21 293 21 -14 l 21 322 q 61 492 21 429 q 164 582 101 556 q 35 822 35 643 l 35 850 q 98 1053 35 982 q 275 1125 161 1125 q 452 1053 389 1125 q 515 850 515 982 l 515 822 q 386 582 515 643 m 275 940 q 222 911 236 940 q 208 807 208 882 q 222 703 208 732 q 275 675 236 675 q 328 703 314 675 q 342 807 342 732 q 328 911 342 882 q 275 940 314 940 m 344 343 q 330 458 344 428 q 275 489 315 489 q 220 458 235 489 q 206 343 206 428 l 206 318 q 220 201 206 232 q 275 171 235 171 q 330 201 315 171 q 344 318 344 232 l 344 343 z "},"9":{"ha":564,"x_min":21,"x_max":543,"o":"m 217 367 q 72 459 122 367 q 21 746 21 551 q 86 1032 21 939 q 282 1125 151 1125 q 478 1031 415 1125 q 543 742 542 938 l 543 375 q 517 149 542 233 q 438 25 492 64 q 292 -14 383 -14 q 109 65 169 -14 q 49 286 49 144 l 233 286 q 247 199 233 226 q 292 171 260 171 q 342 203 326 171 q 358 321 358 236 l 358 446 q 217 367 300 367 m 282 940 q 225 899 244 940 q 206 746 206 857 q 224 592 206 633 q 279 551 243 551 q 338 594 318 551 q 358 742 358 636 q 340 898 358 856 q 282 940 321 940 z "}," ":{"ha":208,"x_min":0,"x_max":0,"o":""},"A":{"ha":585,"x_min":21,"x_max":564,"o":"m 564 0 l 379 0 l 360 200 l 225 200 l 206 0 l 21 0 l 165 1111 l 419 1111 l 564 0 m 293 910 l 243 386 l 343 386 l 293 910 z "},"Á":{"ha":585,"x_min":21,"x_max":564,"o":"m 564 0 l 379 0 l 360 200 l 225 200 l 206 0 l 21 0 l 165 1111 l 419 1111 l 564 0 m 293 910 l 243 386 l 343 386 l 293 910 z "},"Ă":{"ha":585,"x_min":21,"x_max":564,"o":"m 564 0 l 379 0 l 360 200 l 225 200 l 206 0 l 21 0 l 165 1111 l 419 1111 l 564 0 m 293 910 l 243 386 l 343 386 l 293 910 z "},"Â":{"ha":585,"x_min":21,"x_max":564,"o":"m 564 0 l 379 0 l 360 200 l 225 200 l 206 0 l 21 0 l 165 1111 l 419 1111 l 564 0 m 293 910 l 243 386 l 343 386 l 293 910 z "},"Ä":{"ha":585,"x_min":21,"x_max":564,"o":"m 564 0 l 379 0 l 360 200 l 225 200 l 206 0 l 21 0 l 165 1111 l 419 1111 l 564 0 m 293 910 l 243 386 l 343 386 l 293 910 z "},"À":{"ha":585,"x_min":21,"x_max":564,"o":"m 564 0 l 379 0 l 360 200 l 225 200 l 206 0 l 21 0 l 165 1111 l 419 1111 l 564 0 m 293 910 l 243 386 l 343 386 l 293 910 z "},"Ā":{"ha":585,"x_min":21,"x_max":564,"o":"m 564 0 l 379 0 l 360 200 l 225 200 l 206 0 l 21 0 l 165 1111 l 419 1111 l 564 0 m 293 910 l 243 386 l 343 386 l 293 910 z "},"Ą":{"ha":585,"x_min":21,"x_max":582,"o":"m 401 -128 q 442 -195 401 -172 q 582 -221 482 -218 l 526 -276 q 367 -249 431 -276 q 304 -140 304 -222 q 344 -52 304 -86 q 447 0 383 -18 l 379 0 l 360 200 l 225 200 l 206 0 l 21 0 l 165 1111 l 419 1111 l 563 11 l 568 11 l 563 10 l 564 0 l 539 0 q 434 -60 467 -29 q 401 -128 401 -90 m 293 910 l 243 386 l 343 386 l 293 910 z "},"Å":{"ha":585,"x_min":21,"x_max":564,"o":"m 564 0 l 379 0 l 360 200 l 225 200 l 206 0 l 21 0 l 165 1111 l 419 1111 l 564 0 m 293 910 l 243 386 l 343 386 l 293 910 z "},"Ã":{"ha":585,"x_min":21,"x_max":564,"o":"m 564 0 l 379 0 l 360 200 l 225 200 l 206 0 l 21 0 l 165 1111 l 419 1111 l 564 0 m 293 910 l 243 386 l 343 386 l 293 910 z "},"Æ":{"ha":806,"x_min":21,"x_max":785,"o":"m 785 1111 l 785 926 l 588 926 l 588 649 l 785 649 l 785 463 l 588 463 l 588 185 l 785 185 l 785 0 l 403 0 l 403 200 l 231 200 l 206 0 l 21 0 l 167 1111 l 785 1111 m 321 926 l 253 386 l 403 386 l 403 926 l 321 926 z "},"B":{"ha":553,"x_min":21,"x_max":532,"o":"m 401 588 q 532 344 532 528 l 532 288 q 503 119 532 181 q 406 29 474 57 q 219 0 339 1 l 21 0 l 21 1111 l 219 1111 q 399 1083 336 1111 q 489 993 463 1056 q 515 818 515 931 l 515 801 q 401 588 515 640 m 331 818 q 322 889 331 867 q 292 919 314 911 q 221 926 269 926 l 206 926 l 206 669 l 221 669 q 288 677 265 669 q 321 708 311 685 q 331 778 331 731 l 331 818 m 206 485 l 206 185 l 221 185 q 299 194 272 185 q 336 227 325 203 q 347 300 347 251 l 347 368 q 319 460 347 436 q 221 485 292 485 l 206 485 z "},"C":{"ha":550,"x_min":21,"x_max":529,"o":"m 529 660 l 344 660 l 344 801 q 331 911 344 882 q 275 940 317 940 q 219 911 233 940 q 206 801 206 882 l 206 310 q 219 200 206 229 q 275 171 233 171 q 331 200 317 171 q 344 310 344 229 l 344 451 l 529 451 l 529 300 q 465 61 529 136 q 275 -14 401 -14 q 85 61 149 -14 q 21 300 21 136 l 21 811 q 85 1050 21 975 q 275 1125 149 1125 q 465 1050 401 1125 q 529 811 529 975 l 529 660 z "},"Ć":{"ha":550,"x_min":21,"x_max":529,"o":"m 529 660 l 344 660 l 344 801 q 331 911 344 882 q 275 940 317 940 q 219 911 233 940 q 206 801 206 882 l 206 310 q 219 200 206 229 q 275 171 233 171 q 331 200 317 171 q 344 310 344 229 l 344 451 l 529 451 l 529 300 q 465 61 529 136 q 275 -14 401 -14 q 85 61 149 -14 q 21 300 21 136 l 21 811 q 85 1050 21 975 q 275 1125 149 1125 q 465 1050 401 1125 q 529 811 529 975 l 529 660 z "},"Č":{"ha":550,"x_min":21,"x_max":529,"o":"m 529 660 l 344 660 l 344 801 q 331 911 344 882 q 275 940 317 940 q 219 911 233 940 q 206 801 206 882 l 206 310 q 219 200 206 229 q 275 171 233 171 q 331 200 317 171 q 344 310 344 229 l 344 451 l 529 451 l 529 300 q 465 61 529 136 q 275 -14 401 -14 q 85 61 149 -14 q 21 300 21 136 l 21 811 q 85 1050 21 975 q 275 1125 149 1125 q 465 1050 401 1125 q 529 811 529 975 l 529 660 z "},"Ç":{"ha":550,"x_min":21,"x_max":529,"o":"m 529 660 l 344 660 l 344 801 q 331 911 344 882 q 275 940 317 940 q 219 911 233 940 q 206 801 206 882 l 206 310 q 219 200 206 229 q 275 171 233 171 q 331 200 317 171 q 344 310 344 229 l 344 451 l 529 451 l 529 300 q 474 72 529 147 q 307 -12 418 -4 l 288 -93 q 340 -89 317 -89 q 442 -176 442 -89 q 403 -252 442 -228 q 313 -282 364 -276 q 190 -287 261 -287 l 192 -232 q 332 -222 292 -232 q 372 -176 372 -211 q 356 -142 372 -153 q 307 -132 340 -132 q 219 -140 289 -132 l 239 -12 q 76 72 131 -3 q 21 300 21 147 l 21 811 q 85 1050 21 975 q 275 1125 149 1125 q 465 1050 401 1125 q 529 811 529 975 l 529 660 z "},"Ċ":{"ha":550,"x_min":21,"x_max":529,"o":"m 529 660 l 344 660 l 344 801 q 331 911 344 882 q 275 940 317 940 q 219 911 233 940 q 206 801 206 882 l 206 310 q 219 200 206 229 q 275 171 233 171 q 331 200 317 171 q 344 310 344 229 l 344 451 l 529 451 l 529 300 q 465 61 529 136 q 275 -14 401 -14 q 85 61 149 -14 q 21 300 21 136 l 21 811 q 85 1050 21 975 q 275 1125 149 1125 q 465 1050 401 1125 q 529 811 529 975 l 529 660 z "},"D":{"ha":553,"x_min":21,"x_max":532,"o":"m 215 1111 q 403 1083 335 1111 q 501 991 471 1056 q 532 811 532 926 l 532 300 q 501 121 532 186 q 403 28 471 56 q 215 0 335 0 l 21 0 l 21 1111 l 215 1111 m 206 926 l 206 185 l 217 185 q 295 193 268 185 q 335 226 322 201 q 347 300 347 251 l 347 811 q 335 885 347 860 q 295 918 322 910 q 217 926 268 926 l 206 926 z "},"Ð":{"ha":633,"x_min":0,"x_max":613,"o":"m 296 1111 q 483 1083 415 1111 q 582 991 551 1056 q 613 811 613 926 l 613 300 q 582 121 613 186 q 483 28 551 56 q 296 0 415 0 l 101 0 l 101 528 l 0 528 l 0 583 l 101 583 l 101 1111 l 296 1111 m 428 811 q 415 885 428 860 q 376 918 403 910 q 297 926 349 926 l 286 926 l 286 583 l 396 583 l 396 528 l 286 528 l 286 185 l 297 185 q 376 193 349 185 q 415 226 403 201 q 428 300 428 251 l 428 811 z "},"Ď":{"ha":553,"x_min":21,"x_max":532,"o":"m 215 1111 q 403 1083 335 1111 q 501 991 471 1056 q 532 811 532 926 l 532 300 q 501 121 532 186 q 403 28 471 56 q 215 0 335 0 l 21 0 l 21 1111 l 215 1111 m 206 926 l 206 185 l 217 185 q 295 193 268 185 q 335 226 322 201 q 347 300 347 251 l 347 811 q 335 885 347 860 q 295 918 322 910 q 217 926 268 926 l 206 926 z "},"Đ":{"ha":633,"x_min":0,"x_max":613,"o":"m 296 1111 q 483 1083 415 1111 q 582 991 551 1056 q 613 811 613 926 l 613 300 q 582 121 613 186 q 483 28 551 56 q 296 0 415 0 l 101 0 l 101 528 l 0 528 l 0 583 l 101 583 l 101 1111 l 296 1111 m 428 811 q 415 885 428 860 q 376 918 403 910 q 297 926 349 926 l 286 926 l 286 583 l 396 583 l 396 528 l 286 528 l 286 185 l 297 185 q 376 193 349 185 q 415 226 403 201 q 428 300 428 251 l 428 811 z "},"E":{"ha":424,"x_min":21,"x_max":403,"o":"m 21 1111 l 403 1111 l 403 926 l 206 926 l 206 649 l 403 649 l 403 463 l 206 463 l 206 185 l 403 185 l 403 0 l 21 0 l 21 1111 z "},"É":{"ha":424,"x_min":14,"x_max":410,"o":"m 21 1111 l 403 1111 l 403 926 l 206 926 l 206 649 l 403 649 l 403 463 l 206 463 l 206 185 l 403 185 l 403 0 l 21 0 l 21 1111 z "},"Ě":{"ha":424,"x_min":14,"x_max":410,"o":"m 21 1111 l 403 1111 l 403 926 l 206 926 l 206 649 l 403 649 l 403 463 l 206 463 l 206 185 l 403 185 l 403 0 l 21 0 l 21 1111 z "},"Ê":{"ha":424,"x_min":14,"x_max":410,"o":"m 21 1111 l 403 1111 l 403 926 l 206 926 l 206 649 l 403 649 l 403 463 l 206 463 l 206 185 l 403 185 l 403 0 l 21 0 l 21 1111 z "},"Ë":{"ha":424,"x_min":21,"x_max":403,"o":"m 21 1111 l 403 1111 l 403 926 l 206 926 l 206 649 l 403 649 l 403 463 l 206 463 l 206 185 l 403 185 l 403 0 l 21 0 l 21 1111 z "},"Ė":{"ha":424,"x_min":21,"x_max":403,"o":"m 21 1111 l 403 1111 l 403 926 l 206 926 l 206 649 l 403 649 l 403 463 l 206 463 l 206 185 l 403 185 l 403 0 l 21 0 l 21 1111 z "},"È":{"ha":424,"x_min":14,"x_max":410,"o":"m 21 1111 l 403 1111 l 403 926 l 206 926 l 206 649 l 403 649 l 403 463 l 206 463 l 206 185 l 403 185 l 403 0 l 21 0 l 21 1111 z "},"Ē":{"ha":424,"x_min":14,"x_max":410,"o":"m 21 1111 l 403 1111 l 403 926 l 206 926 l 206 649 l 403 649 l 403 463 l 206 463 l 206 185 l 403 185 l 403 0 l 21 0 l 21 1111 z "},"Ę":{"ha":424,"x_min":21,"x_max":417,"o":"m 21 1111 l 403 1111 l 403 926 l 206 926 l 206 649 l 403 649 l 403 463 l 206 463 l 206 185 l 403 185 l 403 0 l 21 0 l 21 1111 z "},"F":{"ha":424,"x_min":21,"x_max":403,"o":"m 21 1111 l 403 1111 l 403 926 l 206 926 l 206 593 l 403 593 l 403 407 l 206 407 l 206 0 l 21 0 l 21 1111 z "},"G":{"ha":550,"x_min":21,"x_max":529,"o":"m 529 671 l 344 671 l 344 801 q 331 911 344 882 q 275 940 317 940 q 219 911 233 940 q 206 801 206 882 l 206 310 q 219 200 206 229 q 275 171 233 171 q 331 200 317 171 q 344 310 344 229 l 344 388 l 275 388 l 275 574 l 529 574 l 529 0 l 451 0 l 422 81 q 246 -14 351 -14 q 76 62 132 -14 q 21 300 21 138 l 21 811 q 85 1049 21 974 q 275 1125 149 1125 q 465 1049 401 1125 q 529 811 529 974 l 529 671 z "},"Ğ":{"ha":550,"x_min":21,"x_max":529,"o":"m 529 671 l 344 671 l 344 801 q 331 911 344 882 q 275 940 317 940 q 219 911 233 940 q 206 801 206 882 l 206 310 q 219 200 206 229 q 275 171 233 171 q 331 200 317 171 q 344 310 344 229 l 344 388 l 275 388 l 275 574 l 529 574 l 529 0 l 451 0 l 422 81 q 246 -14 351 -14 q 76 62 132 -14 q 21 300 21 138 l 21 811 q 85 1049 21 974 q 275 1125 149 1125 q 465 1049 401 1125 q 529 811 529 974 l 529 671 z "},"Ģ":{"ha":550,"x_min":21,"x_max":529,"o":"m 529 671 l 344 671 l 344 801 q 331 911 344 882 q 275 940 317 940 q 219 911 233 940 q 206 801 206 882 l 206 310 q 219 200 206 229 q 275 171 233 171 q 331 200 317 171 q 344 310 344 229 l 344 388 l 275 388 l 275 574 l 529 574 l 529 0 l 451 0 l 422 81 q 246 -14 351 -14 q 76 62 132 -14 q 21 300 21 138 l 21 811 q 85 1049 21 974 q 275 1125 149 1125 q 465 1049 401 1125 q 529 811 529 974 l 529 671 m 278 -197 q 265 -199 274 -199 q 226 -183 240 -199 q 211 -142 211 -167 q 230 -95 211 -114 q 276 -76 249 -76 q 322 -94 303 -76 q 340 -147 340 -112 q 229 -312 340 -258 l 229 -251 q 263 -228 251 -240 q 278 -197 274 -215 z "},"Ġ":{"ha":550,"x_min":21,"x_max":529,"o":"m 529 671 l 344 671 l 344 801 q 331 911 344 882 q 275 940 317 940 q 219 911 233 940 q 206 801 206 882 l 206 310 q 219 200 206 229 q 275 171 233 171 q 331 200 317 171 q 344 310 344 229 l 344 388 l 275 388 l 275 574 l 529 574 l 529 0 l 451 0 l 422 81 q 246 -14 351 -14 q 76 62 132 -14 q 21 300 21 138 l 21 811 q 85 1049 21 974 q 275 1125 149 1125 q 465 1049 401 1125 q 529 811 529 974 l 529 671 z "},"H":{"ha":575,"x_min":21,"x_max":554,"o":"m 206 649 l 369 649 l 369 1111 l 554 1111 l 554 0 l 369 0 l 369 463 l 206 463 l 206 0 l 21 0 l 21 1111 l 206 1111 l 206 649 z "},"Ħ":{"ha":674,"x_min":0,"x_max":674,"o":"m 604 1021 l 674 1021 l 674 965 l 604 965 l 604 0 l 419 0 l 419 463 l 256 463 l 256 0 l 71 0 l 71 965 l 0 965 l 0 1021 l 71 1021 l 71 1111 l 256 1111 l 256 1021 l 419 1021 l 419 1111 l 604 1111 l 604 1021 m 256 649 l 419 649 l 419 965 l 256 965 l 256 649 z "},"I":{"ha":226,"x_min":21,"x_max":206,"o":"m 206 0 l 21 0 l 21 1111 l 206 1111 l 206 0 z "},"Í":{"ha":226,"x_min":-85,"x_max":311,"o":"m 206 0 l 21 0 l 21 1111 l 206 1111 l 206 0 z "},"Î":{"ha":226,"x_min":-85,"x_max":311,"o":"m 206 0 l 21 0 l 21 1111 l 206 1111 l 206 0 z "},"Ï":{"ha":226,"x_min":-57,"x_max":283,"o":"m 206 0 l 21 0 l 21 1111 l 206 1111 l 206 0 z "},"İ":{"ha":226,"x_min":21,"x_max":206,"o":"m 206 0 l 21 0 l 21 1111 l 206 1111 l 206 0 z "},"Ì":{"ha":226,"x_min":-85,"x_max":311,"o":"m 206 0 l 21 0 l 21 1111 l 206 1111 l 206 0 z "},"Ī":{"ha":226,"x_min":-85,"x_max":311,"o":"m 206 0 l 21 0 l 21 1111 l 206 1111 l 206 0 z "},"Į":{"ha":226,"x_min":-58,"x_max":219,"o":"m 206 0 l 21 0 l 21 1111 l 206 1111 l 206 0 z "},"J":{"ha":550,"x_min":21,"x_max":529,"o":"m 344 1111 l 529 1111 l 529 300 q 465 61 529 136 q 275 -14 401 -14 q 85 61 149 -14 q 21 300 21 136 l 21 386 l 206 386 l 206 310 q 213 225 207 254 q 232 183 218 196 q 275 171 246 171 q 331 200 317 171 q 344 310 344 229 l 344 1111 z "},"K":{"ha":581,"x_min":21,"x_max":560,"o":"m 206 0 l 21 0 l 21 1111 l 206 1111 l 206 0 m 206 556 l 368 1111 l 560 1111 l 392 556 l 560 0 l 368 0 l 206 556 z "},"Ķ":{"ha":581,"x_min":21,"x_max":560,"o":"m 206 0 l 21 0 l 21 1111 l 206 1111 l 206 0 m 206 556 l 368 1111 l 560 1111 l 392 556 l 560 0 l 368 0 l 206 556 m 292 -197 q 279 -199 288 -199 q 240 -183 254 -199 q 225 -142 225 -167 q 244 -95 225 -114 q 290 -76 263 -76 q 335 -94 317 -76 q 354 -147 354 -112 q 243 -312 354 -258 l 243 -251 q 276 -228 265 -240 q 292 -197 288 -215 z "},"L":{"ha":424,"x_min":21,"x_max":403,"o":"m 21 1111 l 206 1111 l 206 185 l 403 185 l 403 0 l 21 0 l 21 1111 z "},"Ĺ":{"ha":424,"x_min":-79,"x_max":403,"o":"m 21 1111 l 206 1111 l 206 185 l 403 185 l 403 0 l 21 0 l 21 1111 z "},"Ľ":{"ha":424,"x_min":21,"x_max":406,"o":"m 21 1111 l 206 1111 l 206 185 l 403 185 l 403 0 l 21 0 l 21 1111 m 350 778 l 294 778 l 336 1125 l 406 1125 l 350 778 z "},"Ļ":{"ha":424,"x_min":21,"x_max":403,"o":"m 21 1111 l 206 1111 l 206 185 l 403 185 l 403 0 l 21 0 l 21 1111 m 214 -197 q 201 -199 210 -199 q 162 -183 176 -199 q 147 -142 147 -167 q 166 -95 147 -114 q 213 -76 185 -76 q 258 -94 239 -76 q 276 -147 276 -112 q 165 -312 276 -258 l 165 -251 q 199 -228 188 -240 q 214 -197 210 -215 z "},"Ł":{"ha":493,"x_min":0,"x_max":472,"o":"m 275 661 l 275 185 l 472 185 l 472 0 l 90 0 l 90 546 l 0 490 l 0 568 l 90 624 l 90 1111 l 275 1111 l 275 739 l 456 850 l 456 772 l 275 661 z "},"M":{"ha":714,"x_min":21,"x_max":693,"o":"m 206 1111 l 357 413 l 508 1111 l 693 1111 l 693 0 l 508 0 l 508 535 l 404 0 l 310 0 l 206 535 l 206 0 l 21 0 l 21 1111 l 206 1111 z "},"N":{"ha":624,"x_min":21,"x_max":603,"o":"m 21 1111 l 206 1111 l 418 499 l 418 1111 l 603 1111 l 603 0 l 418 0 l 206 613 l 206 0 l 21 0 l 21 1111 z "},"Ń":{"ha":624,"x_min":21,"x_max":603,"o":"m 21 1111 l 206 1111 l 418 499 l 418 1111 l 603 1111 l 603 0 l 418 0 l 206 613 l 206 0 l 21 0 l 21 1111 z "},"Ň":{"ha":624,"x_min":21,"x_max":603,"o":"m 21 1111 l 206 1111 l 418 499 l 418 1111 l 603 1111 l 603 0 l 418 0 l 206 613 l 206 0 l 21 0 l 21 1111 z "},"Ņ":{"ha":624,"x_min":21,"x_max":603,"o":"m 21 1111 l 206 1111 l 418 499 l 418 1111 l 603 1111 l 603 0 l 418 0 l 206 613 l 206 0 l 21 0 l 21 1111 m 314 -197 q 301 -199 310 -199 q 262 -183 276 -199 q 247 -142 247 -167 q 266 -95 247 -114 q 313 -76 285 -76 q 358 -94 339 -76 q 376 -147 376 -112 q 265 -312 376 -258 l 265 -251 q 299 -228 288 -240 q 314 -197 310 -215 z "},"Ŋ":{"ha":624,"x_min":21,"x_max":603,"o":"m 418 1111 l 603 1111 l 603 0 q 585 -164 603 -106 q 519 -250 568 -222 q 375 -278 469 -278 l 267 -278 l 267 -104 l 325 -104 q 401 -90 378 -104 q 424 -42 424 -76 q 418 0 424 -33 l 206 613 l 206 0 l 21 0 l 21 1111 l 206 1111 l 418 499 l 418 1111 z "},"Ñ":{"ha":624,"x_min":21,"x_max":603,"o":"m 21 1111 l 206 1111 l 418 499 l 418 1111 l 603 1111 l 603 0 l 418 0 l 206 613 l 206 0 l 21 0 l 21 1111 z "},"O":{"ha":550,"x_min":21,"x_max":529,"o":"m 275 1125 q 465 1050 401 1125 q 529 811 529 975 l 529 300 q 465 61 529 136 q 275 -14 401 -14 q 85 61 149 -14 q 21 300 21 136 l 21 811 q 85 1050 21 975 q 275 1125 149 1125 m 344 801 q 331 911 344 882 q 275 940 317 940 q 219 911 233 940 q 206 801 206 882 l 206 310 q 219 200 206 229 q 275 171 233 171 q 331 200 317 171 q 344 310 344 229 l 344 801 z "},"Ó":{"ha":550,"x_min":21,"x_max":529,"o":"m 275 1125 q 465 1050 401 1125 q 529 811 529 975 l 529 300 q 465 61 529 136 q 275 -14 401 -14 q 85 61 149 -14 q 21 300 21 136 l 21 811 q 85 1050 21 975 q 275 1125 149 1125 m 344 801 q 331 911 344 882 q 275 940 317 940 q 219 911 233 940 q 206 801 206 882 l 206 310 q 219 200 206 229 q 275 171 233 171 q 331 200 317 171 q 344 310 344 229 l 344 801 z "},"Ô":{"ha":550,"x_min":21,"x_max":529,"o":"m 275 1125 q 465 1050 401 1125 q 529 811 529 975 l 529 300 q 465 61 529 136 q 275 -14 401 -14 q 85 61 149 -14 q 21 300 21 136 l 21 811 q 85 1050 21 975 q 275 1125 149 1125 m 344 801 q 331 911 344 882 q 275 940 317 940 q 219 911 233 940 q 206 801 206 882 l 206 310 q 219 200 206 229 q 275 171 233 171 q 331 200 317 171 q 344 310 344 229 l 344 801 z "},"Ö":{"ha":550,"x_min":21,"x_max":529,"o":"m 275 1125 q 465 1050 401 1125 q 529 811 529 975 l 529 300 q 465 61 529 136 q 275 -14 401 -14 q 85 61 149 -14 q 21 300 21 136 l 21 811 q 85 1050 21 975 q 275 1125 149 1125 m 344 801 q 331 911 344 882 q 275 940 317 940 q 219 911 233 940 q 206 801 206 882 l 206 310 q 219 200 206 229 q 275 171 233 171 q 331 200 317 171 q 344 310 344 229 l 344 801 z "},"Ò":{"ha":550,"x_min":21,"x_max":529,"o":"m 275 1125 q 465 1050 401 1125 q 529 811 529 975 l 529 300 q 465 61 529 136 q 275 -14 401 -14 q 85 61 149 -14 q 21 300 21 136 l 21 811 q 85 1050 21 975 q 275 1125 149 1125 m 344 801 q 331 911 344 882 q 275 940 317 940 q 219 911 233 940 q 206 801 206 882 l 206 310 q 219 200 206 229 q 275 171 233 171 q 331 200 317 171 q 344 310 344 229 l 344 801 z "},"Ő":{"ha":550,"x_min":21,"x_max":536,"o":"m 275 1125 q 465 1050 401 1125 q 529 811 529 975 l 529 300 q 465 61 529 136 q 275 -14 401 -14 q 85 61 149 -14 q 21 300 21 136 l 21 811 q 85 1050 21 975 q 275 1125 149 1125 m 344 801 q 331 911 344 882 q 275 940 317 940 q 219 911 233 940 q 206 801 206 882 l 206 310 q 219 200 206 229 q 275 171 233 171 q 331 200 317 171 q 344 310 344 229 l 344 801 z "},"Ō":{"ha":550,"x_min":21,"x_max":529,"o":"m 275 1125 q 465 1050 401 1125 q 529 811 529 975 l 529 300 q 465 61 529 136 q 275 -14 401 -14 q 85 61 149 -14 q 21 300 21 136 l 21 811 q 85 1050 21 975 q 275 1125 149 1125 m 344 801 q 331 911 344 882 q 275 940 317 940 q 219 911 233 940 q 206 801 206 882 l 206 310 q 219 200 206 229 q 275 171 233 171 q 331 200 317 171 q 344 310 344 229 l 344 801 z "},"Ø":{"ha":550,"x_min":21,"x_max":529,"o":"m 482 1026 q 529 811 529 953 l 529 300 q 465 61 529 136 q 275 -14 401 -14 q 121 28 178 -14 l 106 -14 l 32 -14 l 68 85 q 21 300 21 158 l 21 811 q 85 1050 21 975 q 275 1125 149 1125 q 429 1083 372 1125 l 444 1125 l 518 1125 l 482 1026 m 206 465 l 343 846 q 326 920 340 900 q 275 940 311 940 q 219 911 233 940 q 206 801 206 882 l 206 465 m 275 171 q 331 200 317 171 q 344 310 344 229 l 344 646 l 207 265 q 224 191 210 211 q 275 171 239 171 z "},"Õ":{"ha":550,"x_min":21,"x_max":529,"o":"m 275 1125 q 465 1050 401 1125 q 529 811 529 975 l 529 300 q 465 61 529 136 q 275 -14 401 -14 q 85 61 149 -14 q 21 300 21 136 l 21 811 q 85 1050 21 975 q 275 1125 149 1125 m 344 801 q 331 911 344 882 q 275 940 317 940 q 219 911 233 940 q 206 801 206 882 l 206 310 q 219 200 206 229 q 275 171 233 171 q 331 200 317 171 q 344 310 344 229 l 344 801 z "},"Œ":{"ha":824,"x_min":21,"x_max":803,"o":"m 803 926 l 606 926 l 606 649 l 803 649 l 803 463 l 606 463 l 606 185 l 803 185 l 803 0 l 421 0 l 421 110 q 347 17 394 47 q 238 -14 300 -14 q 78 63 136 -14 q 21 300 21 139 l 21 811 q 78 1049 21 972 q 238 1125 136 1125 q 347 1094 300 1125 q 421 1001 394 1064 l 421 1111 l 803 1111 l 803 926 m 342 801 q 336 886 342 857 q 317 928 331 915 q 274 940 303 940 q 219 911 233 940 q 206 801 206 882 l 206 310 q 219 200 206 229 q 274 171 233 171 q 317 183 303 171 q 336 225 331 196 q 342 310 342 254 l 342 801 z "},"P":{"ha":553,"x_min":21,"x_max":532,"o":"m 218 1111 q 408 1081 340 1111 q 504 985 476 1051 q 532 804 532 919 l 532 682 q 504 502 532 568 q 409 406 476 436 q 219 375 342 375 l 206 375 l 206 0 l 21 0 l 21 1111 l 218 1111 m 206 926 l 206 560 l 219 560 q 299 569 272 560 q 336 605 325 579 q 347 682 347 631 l 347 804 q 336 881 347 856 q 299 917 325 907 q 219 926 272 926 l 206 926 z "},"Þ":{"ha":553,"x_min":21,"x_max":532,"o":"m 206 903 q 403 873 333 903 q 503 778 474 843 q 532 597 532 713 l 532 471 q 503 292 532 357 q 403 199 474 228 q 206 167 333 169 l 206 0 l 21 0 l 21 1111 l 206 1111 l 206 903 m 206 351 q 294 360 265 351 q 335 394 324 369 q 347 471 347 419 l 347 597 q 335 674 347 649 q 294 709 324 700 q 206 718 265 718 l 206 351 z "},"Q":{"ha":550,"x_min":21,"x_max":529,"o":"m 529 300 q 483 85 529 160 q 344 -7 436 11 q 432 -29 394 -14 q 511 -72 469 -44 l 511 -260 q 370 -190 432 -210 q 206 -162 308 -171 l 206 -7 q 67 85 114 11 q 21 300 21 160 l 21 811 q 85 1050 21 975 q 275 1125 149 1125 q 465 1050 401 1125 q 529 811 529 975 l 529 300 m 206 310 q 219 200 206 229 q 275 171 233 171 q 331 200 317 171 q 344 310 344 229 l 344 801 q 331 911 344 882 q 275 940 317 940 q 219 911 233 940 q 206 801 206 882 l 206 310 z "},"R":{"ha":554,"x_min":21,"x_max":547,"o":"m 532 99 q 535 35 532 60 q 547 0 538 11 l 363 0 q 350 35 353 11 q 347 99 347 60 l 347 308 q 333 381 347 357 q 292 413 318 406 q 221 421 265 421 l 206 421 l 206 0 l 21 0 l 21 1111 l 218 1111 q 407 1081 339 1111 q 503 986 475 1051 q 532 808 532 921 l 532 726 q 505 569 532 632 q 422 472 478 507 q 505 404 478 451 q 532 274 532 357 l 532 99 m 347 808 q 336 882 347 857 q 298 917 325 907 q 219 926 271 926 l 206 926 l 206 606 l 219 606 q 321 631 294 606 q 347 726 347 657 l 347 808 z "},"Ŕ":{"ha":554,"x_min":21,"x_max":547,"o":"m 532 99 q 535 35 532 60 q 547 0 538 11 l 363 0 q 350 35 353 11 q 347 99 347 60 l 347 308 q 333 381 347 357 q 292 413 318 406 q 221 421 265 421 l 206 421 l 206 0 l 21 0 l 21 1111 l 218 1111 q 407 1081 339 1111 q 503 986 475 1051 q 532 808 532 921 l 532 726 q 505 569 532 632 q 422 472 478 507 q 505 404 478 451 q 532 274 532 357 l 532 99 m 347 808 q 336 882 347 857 q 298 917 325 907 q 219 926 271 926 l 206 926 l 206 606 l 219 606 q 321 631 294 606 q 347 726 347 657 l 347 808 z "},"Ř":{"ha":554,"x_min":21,"x_max":547,"o":"m 532 99 q 535 35 532 60 q 547 0 538 11 l 363 0 q 350 35 353 11 q 347 99 347 60 l 347 308 q 333 381 347 357 q 292 413 318 406 q 221 421 265 421 l 206 421 l 206 0 l 21 0 l 21 1111 l 218 1111 q 407 1081 339 1111 q 503 986 475 1051 q 532 808 532 921 l 532 726 q 505 569 532 632 q 422 472 478 507 q 505 404 478 451 q 532 274 532 357 l 532 99 m 347 808 q 336 882 347 857 q 298 917 325 907 q 219 926 271 926 l 206 926 l 206 606 l 219 606 q 321 631 294 606 q 347 726 347 657 l 347 808 z "},"Ŗ":{"ha":554,"x_min":21,"x_max":547,"o":"m 532 99 q 535 35 532 60 q 547 0 538 11 l 363 0 q 350 35 353 11 q 347 99 347 60 l 347 308 q 333 381 347 357 q 292 413 318 406 q 221 421 265 421 l 206 421 l 206 0 l 21 0 l 21 1111 l 218 1111 q 407 1081 339 1111 q 503 986 475 1051 q 532 808 532 921 l 532 726 q 505 569 532 632 q 422 472 478 507 q 505 404 478 451 q 532 274 532 357 l 532 99 m 347 808 q 336 882 347 857 q 298 917 325 907 q 219 926 271 926 l 206 926 l 206 606 l 219 606 q 321 631 294 606 q 347 726 347 657 l 347 808 m 279 -197 q 267 -199 275 -199 q 227 -183 242 -199 q 213 -142 213 -167 q 231 -95 213 -114 q 278 -76 250 -76 q 323 -94 304 -76 q 342 -147 342 -112 q 231 -312 342 -258 l 231 -251 q 264 -228 253 -240 q 279 -197 275 -215 z "},"S":{"ha":550,"x_min":21,"x_max":529,"o":"m 328 657 q 439 560 397 604 q 505 449 481 515 q 529 285 529 383 q 470 62 529 138 q 282 -14 411 -14 q 131 21 188 -14 q 48 142 75 56 q 21 383 21 228 l 206 383 q 213 250 206 296 q 238 188 221 204 q 282 171 254 171 q 331 196 318 171 q 344 285 344 221 q 335 363 344 332 q 301 424 325 394 q 226 493 276 453 q 116 588 153 551 q 51 688 79 625 q 24 843 24 750 q 83 1052 24 979 q 268 1125 143 1125 q 457 1042 396 1125 q 518 783 518 960 l 332 783 q 317 907 332 874 q 268 940 301 940 q 222 917 236 940 q 208 843 208 894 q 235 745 208 782 q 328 657 261 708 z "},"Ś":{"ha":550,"x_min":21,"x_max":529,"o":"m 328 657 q 439 560 397 604 q 505 449 481 515 q 529 285 529 383 q 470 62 529 138 q 282 -14 411 -14 q 131 21 188 -14 q 48 142 75 56 q 21 383 21 228 l 206 383 q 213 250 206 296 q 238 188 221 204 q 282 171 254 171 q 331 196 318 171 q 344 285 344 221 q 335 363 344 332 q 301 424 325 394 q 226 493 276 453 q 116 588 153 551 q 51 688 79 625 q 24 843 24 750 q 83 1052 24 979 q 268 1125 143 1125 q 457 1042 396 1125 q 518 783 518 960 l 332 783 q 317 907 332 874 q 268 940 301 940 q 222 917 236 940 q 208 843 208 894 q 235 745 208 782 q 328 657 261 708 z "},"Š":{"ha":550,"x_min":21,"x_max":529,"o":"m 328 657 q 439 560 397 604 q 505 449 481 515 q 529 285 529 383 q 470 62 529 138 q 282 -14 411 -14 q 131 21 188 -14 q 48 142 75 56 q 21 383 21 228 l 206 383 q 213 250 206 296 q 238 188 221 204 q 282 171 254 171 q 331 196 318 171 q 344 285 344 221 q 335 363 344 332 q 301 424 325 394 q 226 493 276 453 q 116 588 153 551 q 51 688 79 625 q 24 843 24 750 q 83 1052 24 979 q 268 1125 143 1125 q 457 1042 396 1125 q 518 783 518 960 l 332 783 q 317 907 332 874 q 268 940 301 940 q 222 917 236 940 q 208 843 208 894 q 235 745 208 782 q 328 657 261 708 z "},"Ş":{"ha":550,"x_min":21,"x_max":529,"o":"m 529 285 q 478 74 529 149 q 319 -12 428 -1 l 300 -93 q 353 -89 329 -89 q 454 -176 454 -89 q 415 -252 454 -228 q 325 -282 376 -276 q 203 -287 274 -287 l 204 -232 q 344 -222 304 -232 q 385 -176 385 -211 q 369 -142 385 -153 q 319 -132 353 -132 q 232 -140 301 -132 l 251 -12 q 119 31 168 -7 q 45 152 69 68 q 21 383 21 236 l 206 383 q 213 250 206 296 q 238 188 221 204 q 282 171 254 171 q 331 196 318 171 q 344 285 344 221 q 335 363 344 332 q 301 424 325 394 q 226 493 276 453 q 116 588 153 551 q 51 688 79 625 q 24 843 24 750 q 83 1052 24 979 q 268 1125 143 1125 q 457 1042 396 1125 q 518 783 518 960 l 332 783 q 317 907 332 874 q 268 940 301 940 q 222 917 236 940 q 208 843 208 894 q 235 745 208 782 q 328 657 261 708 q 439 560 397 604 q 505 449 481 515 q 529 285 529 383 z "},"Ș":{"ha":550,"x_min":21,"x_max":529,"o":"m 328 657 q 439 560 397 604 q 505 449 481 515 q 529 285 529 383 q 470 62 529 138 q 282 -14 411 -14 q 131 21 188 -14 q 48 142 75 56 q 21 383 21 228 l 206 383 q 213 250 206 296 q 238 188 221 204 q 282 171 254 171 q 331 196 318 171 q 344 285 344 221 q 335 363 344 332 q 301 424 325 394 q 226 493 276 453 q 116 588 153 551 q 51 688 79 625 q 24 843 24 750 q 83 1052 24 979 q 268 1125 143 1125 q 457 1042 396 1125 q 518 783 518 960 l 332 783 q 317 907 332 874 q 268 940 301 940 q 222 917 236 940 q 208 843 208 894 q 235 745 208 782 q 328 657 261 708 m 289 -197 q 276 -199 285 -199 q 237 -183 251 -199 q 222 -142 222 -167 q 241 -95 222 -114 q 288 -76 260 -76 q 333 -94 314 -76 q 351 -147 351 -112 q 240 -312 351 -258 l 240 -251 q 274 -228 263 -240 q 289 -197 285 -215 z "},"T":{"ha":522,"x_min":21,"x_max":501,"o":"m 21 1111 l 501 1111 l 501 926 l 354 926 l 354 0 l 168 0 l 168 926 l 21 926 l 21 1111 z "},"Ŧ":{"ha":522,"x_min":21,"x_max":501,"o":"m 501 1111 l 501 926 l 354 926 l 354 583 l 458 583 l 458 528 l 354 528 l 354 0 l 168 0 l 168 528 l 63 528 l 63 583 l 168 583 l 168 926 l 21 926 l 21 1111 l 501 1111 z "},"Ť":{"ha":522,"x_min":21,"x_max":501,"o":"m 21 1111 l 501 1111 l 501 926 l 354 926 l 354 0 l 168 0 l 168 926 l 21 926 l 21 1111 z "},"Ţ":{"ha":522,"x_min":21,"x_max":501,"o":"m 21 1111 l 501 1111 l 501 926 l 354 926 l 354 0 l 168 0 l 168 926 l 21 926 l 21 1111 z "},"Ț":{"ha":522,"x_min":21,"x_max":501,"o":"m 21 1111 l 501 1111 l 501 926 l 354 926 l 354 0 l 168 0 l 168 926 l 21 926 l 21 1111 m 263 -197 q 250 -199 258 -199 q 210 -183 225 -199 q 196 -142 196 -167 q 215 -95 196 -114 q 261 -76 233 -76 q 306 -94 288 -76 q 325 -147 325 -112 q 214 -312 325 -258 l 214 -251 q 247 -228 236 -240 q 263 -197 258 -215 z "},"U":{"ha":550,"x_min":21,"x_max":529,"o":"m 344 1111 l 529 1111 l 529 300 q 465 61 529 136 q 275 -14 401 -14 q 85 61 149 -14 q 21 300 21 136 l 21 1111 l 206 1111 l 206 310 q 219 200 206 229 q 275 171 233 171 q 331 200 317 171 q 344 310 344 229 l 344 1111 z "},"Ú":{"ha":550,"x_min":21,"x_max":529,"o":"m 344 1111 l 529 1111 l 529 300 q 465 61 529 136 q 275 -14 401 -14 q 85 61 149 -14 q 21 300 21 136 l 21 1111 l 206 1111 l 206 310 q 219 200 206 229 q 275 171 233 171 q 331 200 317 171 q 344 310 344 229 l 344 1111 z "},"Û":{"ha":550,"x_min":21,"x_max":529,"o":"m 344 1111 l 529 1111 l 529 300 q 465 61 529 136 q 275 -14 401 -14 q 85 61 149 -14 q 21 300 21 136 l 21 1111 l 206 1111 l 206 310 q 219 200 206 229 q 275 171 233 171 q 331 200 317 171 q 344 310 344 229 l 344 1111 z "},"Ü":{"ha":550,"x_min":21,"x_max":529,"o":"m 344 1111 l 529 1111 l 529 300 q 465 61 529 136 q 275 -14 401 -14 q 85 61 149 -14 q 21 300 21 136 l 21 1111 l 206 1111 l 206 310 q 219 200 206 229 q 275 171 233 171 q 331 200 317 171 q 344 310 344 229 l 344 1111 z "},"Ù":{"ha":550,"x_min":21,"x_max":529,"o":"m 344 1111 l 529 1111 l 529 300 q 465 61 529 136 q 275 -14 401 -14 q 85 61 149 -14 q 21 300 21 136 l 21 1111 l 206 1111 l 206 310 q 219 200 206 229 q 275 171 233 171 q 331 200 317 171 q 344 310 344 229 l 344 1111 z "},"Ű":{"ha":550,"x_min":21,"x_max":536,"o":"m 344 1111 l 529 1111 l 529 300 q 465 61 529 136 q 275 -14 401 -14 q 85 61 149 -14 q 21 300 21 136 l 21 1111 l 206 1111 l 206 310 q 219 200 206 229 q 275 171 233 171 q 331 200 317 171 q 344 310 344 229 l 344 1111 z "},"Ū":{"ha":550,"x_min":21,"x_max":529,"o":"m 344 1111 l 529 1111 l 529 300 q 465 61 529 136 q 275 -14 401 -14 q 85 61 149 -14 q 21 300 21 136 l 21 1111 l 206 1111 l 206 310 q 219 200 206 229 q 275 171 233 171 q 331 200 317 171 q 344 310 344 229 l 344 1111 z "},"Ų":{"ha":550,"x_min":21,"x_max":529,"o":"m 344 1111 l 529 1111 l 529 300 q 488 94 529 168 q 365 -3 447 21 q 244 -67 282 -35 q 206 -139 206 -99 q 246 -206 206 -183 q 386 -232 286 -229 l 331 -287 q 172 -260 235 -287 q 108 -151 108 -233 q 244 -12 108 -54 q 76 71 132 -4 q 21 300 21 146 l 21 1111 l 206 1111 l 206 310 q 219 200 206 229 q 275 171 233 171 q 331 200 317 171 q 344 310 344 229 l 344 1111 z "},"Ů":{"ha":550,"x_min":21,"x_max":529,"o":"m 344 1111 l 529 1111 l 529 300 q 465 61 529 136 q 275 -14 401 -14 q 85 61 149 -14 q 21 300 21 136 l 21 1111 l 206 1111 l 206 310 q 219 200 206 229 q 275 171 233 171 q 331 200 317 171 q 344 310 344 229 l 344 1111 z "},"V":{"ha":585,"x_min":21,"x_max":564,"o":"m 206 1111 l 293 201 l 379 1111 l 564 1111 l 419 0 l 165 0 l 21 1111 l 206 1111 z "},"W":{"ha":1046,"x_min":21,"x_max":1025,"o":"m 668 1111 l 668 224 l 817 1111 l 1025 1111 l 793 0 l 483 0 l 483 832 l 332 0 l 21 0 l 21 1111 l 206 1111 l 206 224 l 354 1111 l 668 1111 z "},"Ẃ":{"ha":1046,"x_min":21,"x_max":1025,"o":"m 668 1111 l 668 224 l 817 1111 l 1025 1111 l 793 0 l 483 0 l 483 832 l 332 0 l 21 0 l 21 1111 l 206 1111 l 206 224 l 354 1111 l 668 1111 z "},"Ŵ":{"ha":1046,"x_min":21,"x_max":1025,"o":"m 668 1111 l 668 224 l 817 1111 l 1025 1111 l 793 0 l 483 0 l 483 832 l 332 0 l 21 0 l 21 1111 l 206 1111 l 206 224 l 354 1111 l 668 1111 z "},"Ẅ":{"ha":1046,"x_min":21,"x_max":1025,"o":"m 668 1111 l 668 224 l 817 1111 l 1025 1111 l 793 0 l 483 0 l 483 832 l 332 0 l 21 0 l 21 1111 l 206 1111 l 206 224 l 354 1111 l 668 1111 z "},"Ẁ":{"ha":1046,"x_min":21,"x_max":1025,"o":"m 668 1111 l 668 224 l 817 1111 l 1025 1111 l 793 0 l 483 0 l 483 832 l 332 0 l 21 0 l 21 1111 l 206 1111 l 206 224 l 354 1111 l 668 1111 z "},"X":{"ha":636,"x_min":21,"x_max":615,"o":"m 318 417 l 218 0 l 21 0 l 194 556 l 21 1111 l 218 1111 l 318 694 l 418 1111 l 615 1111 l 442 556 l 615 0 l 418 0 l 318 417 z "},"Y":{"ha":636,"x_min":21,"x_max":615,"o":"m 411 0 l 225 0 l 225 389 l 21 1111 l 218 1111 l 318 613 l 418 1111 l 615 1111 l 411 389 l 411 0 z "},"Ý":{"ha":636,"x_min":21,"x_max":615,"o":"m 411 0 l 225 0 l 225 389 l 21 1111 l 218 1111 l 318 613 l 418 1111 l 615 1111 l 411 389 l 411 0 z "},"Ŷ":{"ha":636,"x_min":21,"x_max":615,"o":"m 411 0 l 225 0 l 225 389 l 21 1111 l 218 1111 l 318 613 l 418 1111 l 615 1111 l 411 389 l 411 0 z "},"Ÿ":{"ha":636,"x_min":21,"x_max":615,"o":"m 411 0 l 225 0 l 225 389 l 21 1111 l 218 1111 l 318 613 l 418 1111 l 615 1111 l 411 389 l 411 0 z "},"Ỳ":{"ha":636,"x_min":21,"x_max":615,"o":"m 411 0 l 225 0 l 225 389 l 21 1111 l 218 1111 l 318 613 l 418 1111 l 615 1111 l 411 389 l 411 0 z "},"Z":{"ha":507,"x_min":21,"x_max":486,"o":"m 301 926 l 21 926 l 21 1111 l 486 1111 l 486 926 l 207 185 l 486 185 l 486 0 l 21 0 l 21 185 l 301 926 z "},"Ź":{"ha":507,"x_min":21,"x_max":486,"o":"m 301 926 l 21 926 l 21 1111 l 486 1111 l 486 926 l 207 185 l 486 185 l 486 0 l 21 0 l 21 185 l 301 926 z "},"Ž":{"ha":507,"x_min":21,"x_max":486,"o":"m 301 926 l 21 926 l 21 1111 l 486 1111 l 486 926 l 207 185 l 486 185 l 486 0 l 21 0 l 21 185 l 301 926 z "},"Ż":{"ha":507,"x_min":21,"x_max":486,"o":"m 301 926 l 21 926 l 21 1111 l 486 1111 l 486 926 l 207 185 l 486 185 l 486 0 l 21 0 l 21 185 l 301 926 z "},"a":{"ha":578,"x_min":21,"x_max":557,"o":"m 543 133 q 545 58 543 85 q 557 0 547 32 l 394 0 q 367 45 375 15 q 358 101 358 75 q 296 14 333 42 q 199 -14 258 -14 q 71 45 121 -14 q 21 218 21 104 q 51 364 21 306 q 124 456 82 422 q 233 528 167 489 q 329 594 300 567 q 358 664 358 621 q 343 727 358 708 q 293 746 328 746 q 239 719 256 746 q 222 635 222 693 l 222 604 l 38 604 l 38 631 q 98 845 38 774 q 293 917 158 917 q 484 846 425 917 q 543 635 543 775 l 543 133 m 358 456 q 294 392 342 429 q 228 325 250 354 q 206 250 206 296 q 224 181 206 206 q 278 157 243 157 q 324 174 306 157 q 358 214 343 190 l 358 456 z "},"á":{"ha":578,"x_min":21,"x_max":557,"o":"m 543 133 q 545 58 543 85 q 557 0 547 32 l 394 0 q 367 45 375 15 q 358 101 358 75 q 296 14 333 42 q 199 -14 258 -14 q 71 45 121 -14 q 21 218 21 104 q 51 364 21 306 q 124 456 82 422 q 233 528 167 489 q 329 594 300 567 q 358 664 358 621 q 343 727 358 708 q 293 746 328 746 q 239 719 256 746 q 222 635 222 693 l 222 604 l 38 604 l 38 631 q 98 845 38 774 q 293 917 158 917 q 484 846 425 917 q 543 635 543 775 l 543 133 m 358 456 q 294 392 342 429 q 228 325 250 354 q 206 250 206 296 q 224 181 206 206 q 278 157 243 157 q 324 174 306 157 q 358 214 343 190 l 358 456 z "},"ă":{"ha":578,"x_min":21,"x_max":557,"o":"m 543 133 q 545 58 543 85 q 557 0 547 32 l 394 0 q 367 45 375 15 q 358 101 358 75 q 296 14 333 42 q 199 -14 258 -14 q 71 45 121 -14 q 21 218 21 104 q 51 364 21 306 q 124 456 82 422 q 233 528 167 489 q 329 594 300 567 q 358 664 358 621 q 343 727 358 708 q 293 746 328 746 q 239 719 256 746 q 222 635 222 693 l 222 604 l 38 604 l 38 631 q 98 845 38 774 q 293 917 158 917 q 484 846 425 917 q 543 635 543 775 l 543 133 m 358 456 q 294 392 342 429 q 228 325 250 354 q 206 250 206 296 q 224 181 206 206 q 278 157 243 157 q 324 174 306 157 q 358 214 343 190 l 358 456 z "},"â":{"ha":578,"x_min":21,"x_max":557,"o":"m 543 133 q 545 58 543 85 q 557 0 547 32 l 394 0 q 367 45 375 15 q 358 101 358 75 q 296 14 333 42 q 199 -14 258 -14 q 71 45 121 -14 q 21 218 21 104 q 51 364 21 306 q 124 456 82 422 q 233 528 167 489 q 329 594 300 567 q 358 664 358 621 q 343 727 358 708 q 293 746 328 746 q 239 719 256 746 q 222 635 222 693 l 222 604 l 38 604 l 38 631 q 98 845 38 774 q 293 917 158 917 q 484 846 425 917 q 543 635 543 775 l 543 133 m 358 456 q 294 392 342 429 q 228 325 250 354 q 206 250 206 296 q 224 181 206 206 q 278 157 243 157 q 324 174 306 157 q 358 214 343 190 l 358 456 z "},"ä":{"ha":578,"x_min":21,"x_max":557,"o":"m 543 133 q 545 58 543 85 q 557 0 547 32 l 394 0 q 367 45 375 15 q 358 101 358 75 q 296 14 333 42 q 199 -14 258 -14 q 71 45 121 -14 q 21 218 21 104 q 51 364 21 306 q 124 456 82 422 q 233 528 167 489 q 329 594 300 567 q 358 664 358 621 q 343 727 358 708 q 293 746 328 746 q 239 719 256 746 q 222 635 222 693 l 222 604 l 38 604 l 38 631 q 98 845 38 774 q 293 917 158 917 q 484 846 425 917 q 543 635 543 775 l 543 133 m 358 456 q 294 392 342 429 q 228 325 250 354 q 206 250 206 296 q 224 181 206 206 q 278 157 243 157 q 324 174 306 157 q 358 214 343 190 l 358 456 z "},"à":{"ha":578,"x_min":21,"x_max":557,"o":"m 543 133 q 545 58 543 85 q 557 0 547 32 l 394 0 q 367 45 375 15 q 358 101 358 75 q 296 14 333 42 q 199 -14 258 -14 q 71 45 121 -14 q 21 218 21 104 q 51 364 21 306 q 124 456 82 422 q 233 528 167 489 q 329 594 300 567 q 358 664 358 621 q 343 727 358 708 q 293 746 328 746 q 239 719 256 746 q 222 635 222 693 l 222 604 l 38 604 l 38 631 q 98 845 38 774 q 293 917 158 917 q 484 846 425 917 q 543 635 543 775 l 543 133 m 358 456 q 294 392 342 429 q 228 325 250 354 q 206 250 206 296 q 224 181 206 206 q 278 157 243 157 q 324 174 306 157 q 358 214 343 190 l 358 456 z "},"ā":{"ha":578,"x_min":21,"x_max":557,"o":"m 543 133 q 545 58 543 85 q 557 0 547 32 l 394 0 q 367 45 375 15 q 358 101 358 75 q 296 14 333 42 q 199 -14 258 -14 q 71 45 121 -14 q 21 218 21 104 q 51 364 21 306 q 124 456 82 422 q 233 528 167 489 q 329 594 300 567 q 358 664 358 621 q 343 727 358 708 q 293 746 328 746 q 239 719 256 746 q 222 635 222 693 l 222 604 l 38 604 l 38 631 q 98 845 38 774 q 293 917 158 917 q 484 846 425 917 q 543 635 543 775 l 543 133 m 358 456 q 294 392 342 429 q 228 325 250 354 q 206 250 206 296 q 224 181 206 206 q 278 157 243 157 q 324 174 306 157 q 358 214 343 190 l 358 456 z "},"ą":{"ha":578,"x_min":21,"x_max":571,"o":"m 390 -139 q 431 -206 390 -183 q 571 -232 471 -229 l 515 -287 q 356 -260 419 -287 q 293 -151 293 -233 q 349 -50 293 -86 q 488 0 404 -14 l 394 0 q 367 45 375 15 q 358 101 358 75 q 296 14 333 42 q 199 -14 258 -14 q 71 45 121 -14 q 21 218 21 104 q 51 364 21 306 q 124 456 82 422 q 233 528 167 489 q 329 594 300 567 q 358 664 358 621 q 343 727 358 708 q 293 746 328 746 q 239 719 256 746 q 222 635 222 693 l 222 604 l 38 604 l 38 631 q 98 845 38 774 q 293 917 158 917 q 484 846 425 917 q 543 635 543 775 l 543 133 q 545 58 543 85 q 557 0 547 32 q 430 -65 469 -33 q 390 -139 390 -97 m 358 456 q 294 392 342 429 q 228 325 250 354 q 206 250 206 296 q 224 181 206 206 q 278 157 243 157 q 324 174 306 157 q 358 214 343 190 l 358 456 z "},"å":{"ha":578,"x_min":21,"x_max":557,"o":"m 543 133 q 545 58 543 85 q 557 0 547 32 l 394 0 q 367 45 375 15 q 358 101 358 75 q 296 14 333 42 q 199 -14 258 -14 q 71 45 121 -14 q 21 218 21 104 q 51 364 21 306 q 124 456 82 422 q 233 528 167 489 q 329 594 300 567 q 358 664 358 621 q 343 727 358 708 q 293 746 328 746 q 239 719 256 746 q 222 635 222 693 l 222 604 l 38 604 l 38 631 q 98 845 38 774 q 293 917 158 917 q 484 846 425 917 q 543 635 543 775 l 543 133 m 358 456 q 294 392 342 429 q 228 325 250 354 q 206 250 206 296 q 224 181 206 206 q 278 157 243 157 q 324 174 306 157 q 358 214 343 190 l 358 456 z "},"ã":{"ha":578,"x_min":21,"x_max":557,"o":"m 543 133 q 545 58 543 85 q 557 0 547 32 l 394 0 q 367 45 375 15 q 358 101 358 75 q 296 14 333 42 q 199 -14 258 -14 q 71 45 121 -14 q 21 218 21 104 q 51 364 21 306 q 124 456 82 422 q 233 528 167 489 q 329 594 300 567 q 358 664 358 621 q 343 727 358 708 q 293 746 328 746 q 239 719 256 746 q 222 635 222 693 l 222 604 l 38 604 l 38 631 q 98 845 38 774 q 293 917 158 917 q 484 846 425 917 q 543 635 543 775 l 543 133 m 358 456 q 294 392 342 429 q 228 325 250 354 q 206 250 206 296 q 224 181 206 206 q 278 157 243 157 q 324 174 306 157 q 358 214 343 190 l 358 456 z "},"æ":{"ha":878,"x_min":21,"x_max":857,"o":"m 604 917 q 794 840 732 917 q 857 597 857 763 l 857 417 l 533 417 l 533 299 q 549 187 533 217 q 604 157 564 157 q 658 186 644 157 q 672 299 672 215 l 672 354 l 857 354 l 857 306 q 794 63 857 140 q 604 -14 732 -14 q 388 101 449 -14 q 312 13 351 40 q 207 -14 272 -14 q 74 38 128 -14 q 21 190 21 89 q 51 335 21 275 q 122 432 81 394 q 226 514 163 469 q 319 590 290 558 q 349 664 349 621 q 335 727 349 708 q 289 746 321 746 q 238 719 254 746 q 222 635 222 693 l 222 604 l 38 604 l 38 631 q 264 917 38 917 q 418 847 360 917 q 604 917 482 917 m 672 604 q 658 716 672 686 q 604 746 643 746 q 549 716 564 746 q 533 604 533 686 l 533 542 l 672 542 l 672 604 m 275 157 q 316 169 299 157 q 356 203 333 181 q 349 306 349 254 l 349 454 q 290 392 335 431 q 227 326 249 357 q 206 250 206 296 q 224 181 206 206 q 275 157 243 157 z "},"b":{"ha":553,"x_min":10,"x_max":532,"o":"m 374 917 q 471 887 436 917 q 519 795 506 857 q 532 631 532 733 l 532 272 q 519 108 532 169 q 471 16 506 46 q 374 -14 436 -14 q 269 20 310 -14 q 208 101 229 54 q 200 44 208 75 q 171 0 192 14 l 10 0 q 22 56 19 31 q 24 133 24 82 l 24 1111 l 208 1111 l 208 801 q 269 883 229 849 q 374 917 310 917 m 346 646 q 331 723 346 700 q 279 746 315 746 q 226 722 243 746 q 208 644 208 697 l 208 258 q 226 181 208 206 q 279 157 243 157 q 331 180 315 157 q 346 257 346 203 l 346 646 z "},"c":{"ha":550,"x_min":21,"x_max":529,"o":"m 529 549 l 344 549 l 344 604 q 330 716 344 686 q 276 746 315 746 q 221 716 236 746 q 206 604 206 686 l 206 299 q 221 187 206 217 q 276 157 236 157 q 331 186 317 157 q 344 299 344 215 l 344 354 l 529 354 l 529 306 q 467 63 529 140 q 276 -14 404 -14 q 85 63 149 -14 q 21 306 21 140 l 21 597 q 85 840 21 763 q 276 917 149 917 q 467 840 404 917 q 529 597 529 763 l 529 549 z "},"ć":{"ha":550,"x_min":21,"x_max":529,"o":"m 529 549 l 344 549 l 344 604 q 330 716 344 686 q 276 746 315 746 q 221 716 236 746 q 206 604 206 686 l 206 299 q 221 187 206 217 q 276 157 236 157 q 331 186 317 157 q 344 299 344 215 l 344 354 l 529 354 l 529 306 q 467 63 529 140 q 276 -14 404 -14 q 85 63 149 -14 q 21 306 21 140 l 21 597 q 85 840 21 763 q 276 917 149 917 q 467 840 404 917 q 529 597 529 763 l 529 549 z "},"č":{"ha":550,"x_min":21,"x_max":529,"o":"m 529 549 l 344 549 l 344 604 q 330 716 344 686 q 276 746 315 746 q 221 716 236 746 q 206 604 206 686 l 206 299 q 221 187 206 217 q 276 157 236 157 q 331 186 317 157 q 344 299 344 215 l 344 354 l 529 354 l 529 306 q 467 63 529 140 q 276 -14 404 -14 q 85 63 149 -14 q 21 306 21 140 l 21 597 q 85 840 21 763 q 276 917 149 917 q 467 840 404 917 q 529 597 529 763 l 529 549 z "},"ç":{"ha":550,"x_min":21,"x_max":529,"o":"m 529 549 l 344 549 l 344 604 q 330 716 344 686 q 276 746 315 746 q 221 716 236 746 q 206 604 206 686 l 206 299 q 221 187 206 217 q 276 157 236 157 q 331 186 317 157 q 344 299 344 215 l 344 354 l 529 354 l 529 306 q 474 73 529 150 q 307 -12 419 -4 l 288 -93 q 340 -89 317 -89 q 442 -176 442 -89 q 403 -252 442 -228 q 313 -282 364 -276 q 190 -287 261 -287 l 192 -232 q 332 -222 292 -232 q 372 -176 372 -211 q 356 -142 372 -153 q 307 -132 340 -132 q 219 -140 289 -132 l 239 -12 q 76 76 131 -1 q 21 306 21 153 l 21 597 q 85 840 21 763 q 276 917 149 917 q 467 840 404 917 q 529 597 529 763 l 529 549 z "},"ċ":{"ha":550,"x_min":21,"x_max":529,"o":"m 529 549 l 344 549 l 344 604 q 330 716 344 686 q 276 746 315 746 q 221 716 236 746 q 206 604 206 686 l 206 299 q 221 187 206 217 q 276 157 236 157 q 331 186 317 157 q 344 299 344 215 l 344 354 l 529 354 l 529 306 q 467 63 529 140 q 276 -14 404 -14 q 85 63 149 -14 q 21 306 21 140 l 21 597 q 85 840 21 763 q 276 917 149 917 q 467 840 404 917 q 529 597 529 763 l 529 549 z "},"d":{"ha":553,"x_min":21,"x_max":543,"o":"m 179 917 q 283 883 243 917 q 344 801 324 849 l 344 1111 l 529 1111 l 529 133 q 531 56 529 82 q 543 0 533 31 l 382 0 q 353 44 361 14 q 344 101 344 75 q 283 20 324 54 q 179 -14 243 -14 q 82 16 117 -14 q 34 108 47 46 q 21 272 21 169 l 21 631 q 34 795 21 733 q 82 887 47 857 q 179 917 117 917 m 207 257 q 222 180 207 203 q 274 157 238 157 q 327 181 310 157 q 344 258 344 206 l 344 644 q 327 722 344 697 q 274 746 310 746 q 222 723 238 746 q 207 646 207 700 l 207 257 z "},"ð":{"ha":644,"x_min":21,"x_max":624,"o":"m 443 936 q 576 709 529 839 q 624 421 624 579 q 541 103 624 219 q 311 -14 458 -14 q 97 83 174 -14 q 21 353 21 181 q 85 592 21 496 q 278 688 150 688 q 436 600 376 688 q 290 843 401 742 l 93 721 l 93 799 l 235 886 q 103 961 181 926 l 176 1121 q 396 985 301 1071 l 572 1094 l 572 1017 l 443 936 m 324 160 q 413 205 386 160 q 439 346 439 250 q 408 476 438 438 q 324 514 378 514 q 206 344 206 514 q 234 202 206 244 q 324 160 263 160 z "},"ď":{"ha":724,"x_min":21,"x_max":724,"o":"m 179 917 q 283 883 243 917 q 344 801 324 849 l 344 1111 l 529 1111 l 529 133 q 531 56 529 82 q 543 0 533 31 l 382 0 q 353 44 361 14 q 344 101 344 75 q 283 20 324 54 q 179 -14 243 -14 q 82 16 117 -14 q 34 108 47 46 q 21 272 21 169 l 21 631 q 34 795 21 733 q 82 887 47 857 q 179 917 117 917 m 207 257 q 222 180 207 203 q 274 157 238 157 q 327 181 310 157 q 344 258 344 206 l 344 644 q 327 722 344 697 q 274 746 310 746 q 222 723 238 746 q 207 646 207 700 l 207 257 m 668 778 l 613 778 l 654 1125 l 724 1125 l 668 778 z "},"đ":{"ha":553,"x_min":21,"x_max":632,"o":"m 529 1021 l 632 1021 l 632 965 l 529 965 l 529 133 q 531 56 529 82 q 543 0 533 31 l 381 0 q 353 44 361 14 q 344 101 344 75 q 283 20 324 54 q 179 -14 243 -14 q 82 16 117 -14 q 34 108 47 46 q 21 272 21 169 l 21 631 q 34 795 21 733 q 82 887 47 857 q 179 917 117 917 q 283 883 243 917 q 344 801 324 849 l 344 965 l 236 965 l 236 1021 l 344 1021 l 344 1111 l 529 1111 l 529 1021 m 344 644 q 327 722 344 697 q 272 746 310 746 q 222 723 238 746 q 206 646 206 700 l 206 257 q 222 180 206 203 q 272 157 238 157 q 327 181 310 157 q 344 258 344 206 l 344 644 z "},"e":{"ha":550,"x_min":21,"x_max":529,"o":"m 276 917 q 467 840 404 917 q 529 597 529 763 l 529 417 l 206 417 l 206 299 q 221 187 206 217 q 276 157 236 157 q 331 186 317 157 q 344 299 344 215 l 344 354 l 529 354 l 529 306 q 467 63 529 140 q 276 -14 404 -14 q 85 63 149 -14 q 21 306 21 140 l 21 597 q 85 840 21 763 q 276 917 149 917 m 344 604 q 330 716 344 686 q 276 746 315 746 q 221 716 236 746 q 206 604 206 686 l 206 542 l 344 542 l 344 604 z "},"é":{"ha":550,"x_min":21,"x_max":529,"o":"m 276 917 q 467 840 404 917 q 529 597 529 763 l 529 417 l 206 417 l 206 299 q 221 187 206 217 q 276 157 236 157 q 331 186 317 157 q 344 299 344 215 l 344 354 l 529 354 l 529 306 q 467 63 529 140 q 276 -14 404 -14 q 85 63 149 -14 q 21 306 21 140 l 21 597 q 85 840 21 763 q 276 917 149 917 m 344 604 q 330 716 344 686 q 276 746 315 746 q 221 716 236 746 q 206 604 206 686 l 206 542 l 344 542 l 344 604 z "},"ě":{"ha":550,"x_min":21,"x_max":529,"o":"m 276 917 q 467 840 404 917 q 529 597 529 763 l 529 417 l 206 417 l 206 299 q 221 187 206 217 q 276 157 236 157 q 331 186 317 157 q 344 299 344 215 l 344 354 l 529 354 l 529 306 q 467 63 529 140 q 276 -14 404 -14 q 85 63 149 -14 q 21 306 21 140 l 21 597 q 85 840 21 763 q 276 917 149 917 m 344 604 q 330 716 344 686 q 276 746 315 746 q 221 716 236 746 q 206 604 206 686 l 206 542 l 344 542 l 344 604 z "},"ê":{"ha":550,"x_min":21,"x_max":529,"o":"m 276 917 q 467 840 404 917 q 529 597 529 763 l 529 417 l 206 417 l 206 299 q 221 187 206 217 q 276 157 236 157 q 331 186 317 157 q 344 299 344 215 l 344 354 l 529 354 l 529 306 q 467 63 529 140 q 276 -14 404 -14 q 85 63 149 -14 q 21 306 21 140 l 21 597 q 85 840 21 763 q 276 917 149 917 m 344 604 q 330 716 344 686 q 276 746 315 746 q 221 716 236 746 q 206 604 206 686 l 206 542 l 344 542 l 344 604 z "},"ë":{"ha":550,"x_min":21,"x_max":529,"o":"m 276 917 q 467 840 404 917 q 529 597 529 763 l 529 417 l 206 417 l 206 299 q 221 187 206 217 q 276 157 236 157 q 331 186 317 157 q 344 299 344 215 l 344 354 l 529 354 l 529 306 q 467 63 529 140 q 276 -14 404 -14 q 85 63 149 -14 q 21 306 21 140 l 21 597 q 85 840 21 763 q 276 917 149 917 m 344 604 q 330 716 344 686 q 276 746 315 746 q 221 716 236 746 q 206 604 206 686 l 206 542 l 344 542 l 344 604 z "},"ė":{"ha":550,"x_min":21,"x_max":529,"o":"m 276 917 q 467 840 404 917 q 529 597 529 763 l 529 417 l 206 417 l 206 299 q 221 187 206 217 q 276 157 236 157 q 331 186 317 157 q 344 299 344 215 l 344 354 l 529 354 l 529 306 q 467 63 529 140 q 276 -14 404 -14 q 85 63 149 -14 q 21 306 21 140 l 21 597 q 85 840 21 763 q 276 917 149 917 m 344 604 q 330 716 344 686 q 276 746 315 746 q 221 716 236 746 q 206 604 206 686 l 206 542 l 344 542 l 344 604 z "},"è":{"ha":550,"x_min":21,"x_max":529,"o":"m 276 917 q 467 840 404 917 q 529 597 529 763 l 529 417 l 206 417 l 206 299 q 221 187 206 217 q 276 157 236 157 q 331 186 317 157 q 344 299 344 215 l 344 354 l 529 354 l 529 306 q 467 63 529 140 q 276 -14 404 -14 q 85 63 149 -14 q 21 306 21 140 l 21 597 q 85 840 21 763 q 276 917 149 917 m 344 604 q 330 716 344 686 q 276 746 315 746 q 221 716 236 746 q 206 604 206 686 l 206 542 l 344 542 l 344 604 z "},"ē":{"ha":550,"x_min":21,"x_max":529,"o":"m 276 917 q 467 840 404 917 q 529 597 529 763 l 529 417 l 206 417 l 206 299 q 221 187 206 217 q 276 157 236 157 q 331 186 317 157 q 344 299 344 215 l 344 354 l 529 354 l 529 306 q 467 63 529 140 q 276 -14 404 -14 q 85 63 149 -14 q 21 306 21 140 l 21 597 q 85 840 21 763 q 276 917 149 917 m 344 604 q 330 716 344 686 q 276 746 315 746 q 221 716 236 746 q 206 604 206 686 l 206 542 l 344 542 l 344 604 z "},"ę":{"ha":550,"x_min":21,"x_max":529,"o":"m 276 917 q 467 840 404 917 q 529 597 529 763 l 529 417 l 206 417 l 206 299 q 221 187 206 217 q 276 157 236 157 q 331 186 317 157 q 344 299 344 215 l 344 354 l 529 354 l 529 306 q 488 96 529 171 q 364 -3 447 21 q 243 -66 281 -35 q 206 -139 206 -97 q 246 -206 206 -183 q 386 -232 286 -229 l 331 -287 q 172 -260 235 -287 q 108 -151 108 -233 q 246 -12 108 -53 q 77 73 133 -4 q 21 306 21 150 l 21 597 q 85 840 21 763 q 276 917 149 917 m 344 604 q 330 716 344 686 q 276 746 315 746 q 221 716 236 746 q 206 604 206 686 l 206 542 l 344 542 l 344 604 z "},"f":{"ha":458,"x_min":21,"x_max":438,"o":"m 438 975 q 386 976 419 976 q 315 960 335 976 q 294 899 294 943 l 294 854 q 352 894 318 886 q 438 903 386 903 l 438 732 l 294 732 l 294 0 l 108 0 l 108 732 l 21 732 l 21 903 l 108 903 l 108 924 q 152 1071 108 1017 q 314 1125 196 1125 q 438 1111 378 1125 l 438 975 z "},"g":{"ha":550,"x_min":21,"x_max":529,"o":"m 344 903 l 529 903 l 529 25 q 511 -154 529 -90 q 442 -248 493 -218 q 292 -278 390 -278 l 60 -278 l 60 -107 l 247 -107 q 323 -79 301 -107 q 344 25 344 -51 l 344 101 q 283 20 324 54 q 179 -14 243 -14 q 82 16 117 -14 q 34 108 47 46 q 21 272 21 169 l 21 631 q 34 795 21 733 q 82 887 47 857 q 179 917 117 917 q 283 883 243 917 q 344 801 324 849 l 344 903 m 272 157 q 327 181 310 157 q 344 258 344 206 l 344 644 q 327 722 344 697 q 272 746 310 746 q 222 723 238 746 q 206 646 206 700 l 206 257 q 222 180 206 203 q 272 157 238 157 z "},"ğ":{"ha":550,"x_min":21,"x_max":529,"o":"m 344 903 l 529 903 l 529 25 q 511 -154 529 -90 q 442 -248 493 -218 q 292 -278 390 -278 l 60 -278 l 60 -107 l 247 -107 q 323 -79 301 -107 q 344 25 344 -51 l 344 101 q 283 20 324 54 q 179 -14 243 -14 q 82 16 117 -14 q 34 108 47 46 q 21 272 21 169 l 21 631 q 34 795 21 733 q 82 887 47 857 q 179 917 117 917 q 283 883 243 917 q 344 801 324 849 l 344 903 m 272 157 q 327 181 310 157 q 344 258 344 206 l 344 644 q 327 722 344 697 q 272 746 310 746 q 222 723 238 746 q 206 646 206 700 l 206 257 q 222 180 206 203 q 272 157 238 157 z "},"ģ":{"ha":550,"x_min":21,"x_max":529,"o":"m 344 903 l 529 903 l 529 25 q 511 -154 529 -90 q 442 -248 493 -218 q 292 -278 390 -278 l 60 -278 l 60 -107 l 247 -107 q 323 -79 301 -107 q 344 25 344 -51 l 344 101 q 283 20 324 54 q 179 -14 243 -14 q 82 16 117 -14 q 34 108 47 46 q 21 272 21 169 l 21 631 q 34 795 21 733 q 82 887 47 857 q 179 917 117 917 q 283 883 243 917 q 344 801 324 849 l 344 903 m 272 157 q 327 181 310 157 q 344 258 344 206 l 344 644 q 327 722 344 697 q 272 746 310 746 q 222 723 238 746 q 206 646 206 700 l 206 257 q 222 180 206 203 q 272 157 238 157 m 274 1093 q 301 1100 286 1100 q 330 1086 319 1100 q 340 1051 340 1072 q 323 1005 340 1024 q 278 986 306 986 q 228 1009 244 986 q 211 1071 211 1032 q 237 1148 211 1108 q 322 1208 263 1188 l 322 1147 q 289 1124 300 1136 q 274 1093 278 1111 z "},"ġ":{"ha":550,"x_min":21,"x_max":529,"o":"m 344 903 l 529 903 l 529 25 q 511 -154 529 -90 q 442 -248 493 -218 q 292 -278 390 -278 l 60 -278 l 60 -107 l 247 -107 q 323 -79 301 -107 q 344 25 344 -51 l 344 101 q 283 20 324 54 q 179 -14 243 -14 q 82 16 117 -14 q 34 108 47 46 q 21 272 21 169 l 21 631 q 34 795 21 733 q 82 887 47 857 q 179 917 117 917 q 283 883 243 917 q 344 801 324 849 l 344 903 m 272 157 q 327 181 310 157 q 344 258 344 206 l 344 644 q 327 722 344 697 q 272 746 310 746 q 222 723 238 746 q 206 646 206 700 l 206 257 q 222 180 206 203 q 272 157 238 157 z "},"h":{"ha":550,"x_min":21,"x_max":529,"o":"m 371 917 q 468 887 433 917 q 516 795 503 857 q 529 631 529 733 l 529 0 l 344 0 l 344 646 q 328 723 344 700 q 278 746 313 746 q 223 722 240 746 q 206 644 206 697 l 206 0 l 21 0 l 21 1111 l 206 1111 l 206 801 q 267 883 226 849 q 371 917 307 917 z "},"ħ":{"ha":550,"x_min":-81,"x_max":529,"o":"m 371 917 q 468 887 433 917 q 516 795 503 857 q 529 631 529 733 l 529 0 l 344 0 l 344 646 q 328 723 344 700 q 278 746 313 746 q 223 722 240 746 q 206 644 206 697 l 206 0 l 21 0 l 21 965 l -81 965 l -81 1021 l 21 1021 l 21 1111 l 206 1111 l 206 1021 l 315 1021 l 315 965 l 206 965 l 206 801 q 267 883 226 849 q 371 917 307 917 z "},"i":{"ha":226,"x_min":18,"x_max":208,"o":"m 114 958 q 47 983 75 958 q 18 1040 18 1007 q 46 1100 18 1075 q 114 1125 74 1125 q 181 1100 153 1125 q 208 1040 208 1075 q 181 983 208 1007 q 114 958 153 958 m 206 0 l 21 0 l 21 903 l 206 903 l 206 0 z "},"ı":{"ha":226,"x_min":21,"x_max":206,"o":"m 206 0 l 21 0 l 21 903 l 206 903 l 206 0 z "},"í":{"ha":226,"x_min":-85,"x_max":311,"o":"m 206 0 l 21 0 l 21 903 l 206 903 l 206 0 z "},"î":{"ha":226,"x_min":-85,"x_max":311,"o":"m 206 0 l 21 0 l 21 903 l 206 903 l 206 0 z "},"ï":{"ha":226,"x_min":-57,"x_max":283,"o":"m 206 0 l 21 0 l 21 903 l 206 903 l 206 0 z "},"ì":{"ha":226,"x_min":-85,"x_max":311,"o":"m 206 0 l 21 0 l 21 903 l 206 903 l 206 0 z "},"ī":{"ha":226,"x_min":-85,"x_max":311,"o":"m 206 0 l 21 0 l 21 903 l 206 903 l 206 0 z "},"į":{"ha":226,"x_min":-58,"x_max":219,"o":"m 206 0 l 21 0 l 21 903 l 206 903 l 206 0 z "},"j":{"ha":364,"x_min":7,"x_max":344,"o":"m 250 958 q 183 983 211 958 q 156 1040 156 1007 q 183 1100 156 1075 q 250 1125 211 1125 q 317 1100 289 1125 q 344 1040 344 1075 q 317 983 344 1007 q 250 958 289 958 m 157 903 l 343 903 l 343 25 q 326 -155 343 -92 q 260 -248 308 -218 q 117 -278 213 -278 l 7 -278 l 7 -107 l 69 -107 q 138 -79 119 -107 q 157 25 157 -51 l 157 903 z "},"k":{"ha":581,"x_min":21,"x_max":560,"o":"m 206 0 l 21 0 l 21 1111 l 206 1111 l 206 0 m 206 451 l 367 903 l 560 903 l 392 451 l 560 0 l 367 0 l 206 451 z "},"ķ":{"ha":581,"x_min":21,"x_max":560,"o":"m 206 0 l 21 0 l 21 1111 l 206 1111 l 206 0 m 206 451 l 367 903 l 560 903 l 392 451 l 560 0 l 367 0 l 206 451 m 292 -197 q 279 -199 288 -199 q 240 -183 254 -199 q 225 -142 225 -167 q 244 -95 225 -114 q 290 -76 263 -76 q 335 -94 317 -76 q 354 -147 354 -112 q 243 -312 354 -258 l 243 -251 q 276 -228 265 -240 q 292 -197 288 -215 z "},"l":{"ha":226,"x_min":21,"x_max":206,"o":"m 206 0 l 21 0 l 21 1111 l 206 1111 l 206 0 z "},"ĺ":{"ha":226,"x_min":-85,"x_max":311,"o":"m 206 0 l 21 0 l 21 1111 l 206 1111 l 206 0 z "},"ľ":{"ha":389,"x_min":21,"x_max":396,"o":"m 206 0 l 21 0 l 21 1111 l 206 1111 l 206 0 m 340 778 l 285 778 l 326 1125 l 396 1125 l 340 778 z "},"ļ":{"ha":226,"x_min":21,"x_max":206,"o":"m 206 0 l 21 0 l 21 1111 l 206 1111 l 206 0 m 115 -197 q 103 -199 111 -199 q 63 -183 78 -199 q 49 -142 49 -167 q 67 -95 49 -114 q 114 -76 86 -76 q 159 -94 140 -76 q 178 -147 178 -112 q 67 -312 178 -258 l 67 -251 q 100 -228 89 -240 q 115 -197 111 -215 z "},"ł":{"ha":479,"x_min":0,"x_max":479,"o":"m 328 771 l 479 864 l 479 786 l 328 693 l 328 0 l 143 0 l 143 579 l 0 490 l 0 568 l 143 657 l 143 1111 l 328 1111 l 328 771 z "},"m":{"ha":836,"x_min":21,"x_max":815,"o":"m 668 917 q 760 887 728 917 q 803 796 792 857 q 815 631 815 735 l 815 0 l 631 0 l 631 646 q 617 723 631 700 q 574 746 603 746 q 511 644 511 746 l 511 0 l 325 0 l 325 646 q 312 723 325 700 q 269 746 299 746 q 206 644 206 746 l 206 0 l 21 0 l 21 903 l 206 903 l 206 801 q 265 883 225 849 q 363 917 304 917 q 454 887 422 917 q 500 794 486 857 q 565 881 521 846 q 668 917 610 917 z "},"n":{"ha":550,"x_min":21,"x_max":529,"o":"m 371 917 q 468 887 433 917 q 516 795 503 857 q 529 631 529 733 l 529 0 l 344 0 l 344 646 q 328 723 344 700 q 278 746 313 746 q 223 722 240 746 q 206 644 206 697 l 206 0 l 21 0 l 21 903 l 206 903 l 206 801 q 267 883 226 849 q 371 917 307 917 z "},"ń":{"ha":550,"x_min":21,"x_max":529,"o":"m 371 917 q 468 887 433 917 q 516 795 503 857 q 529 631 529 733 l 529 0 l 344 0 l 344 646 q 328 723 344 700 q 278 746 313 746 q 223 722 240 746 q 206 644 206 697 l 206 0 l 21 0 l 21 903 l 206 903 l 206 801 q 267 883 226 849 q 371 917 307 917 z "},"ň":{"ha":550,"x_min":21,"x_max":529,"o":"m 371 917 q 468 887 433 917 q 516 795 503 857 q 529 631 529 733 l 529 0 l 344 0 l 344 646 q 328 723 344 700 q 278 746 313 746 q 223 722 240 746 q 206 644 206 697 l 206 0 l 21 0 l 21 903 l 206 903 l 206 801 q 267 883 226 849 q 371 917 307 917 z "},"ņ":{"ha":550,"x_min":21,"x_max":529,"o":"m 371 917 q 468 887 433 917 q 516 795 503 857 q 529 631 529 733 l 529 0 l 344 0 l 344 646 q 328 723 344 700 q 278 746 313 746 q 223 722 240 746 q 206 644 206 697 l 206 0 l 21 0 l 21 903 l 206 903 l 206 801 q 267 883 226 849 q 371 917 307 917 m 276 -197 q 264 -199 272 -199 q 224 -183 239 -199 q 210 -142 210 -167 q 228 -95 210 -114 q 275 -76 247 -76 q 320 -94 301 -76 q 339 -147 339 -112 q 228 -312 339 -258 l 228 -251 q 261 -228 250 -240 q 276 -197 272 -215 z "},"ŋ":{"ha":550,"x_min":21,"x_max":529,"o":"m 371 917 q 468 887 433 917 q 516 795 503 857 q 529 631 529 733 l 529 0 q 512 -162 529 -103 q 446 -249 494 -221 q 303 -278 397 -278 l 193 -278 l 193 -107 l 257 -107 q 324 -83 304 -107 q 344 0 344 -58 l 344 646 q 328 723 344 700 q 278 746 313 746 q 223 722 240 746 q 206 644 206 697 l 206 0 l 21 0 l 21 903 l 206 903 l 206 801 q 267 883 226 849 q 371 917 307 917 z "},"ñ":{"ha":550,"x_min":21,"x_max":529,"o":"m 371 917 q 468 887 433 917 q 516 795 503 857 q 529 631 529 733 l 529 0 l 344 0 l 344 646 q 328 723 344 700 q 278 746 313 746 q 223 722 240 746 q 206 644 206 697 l 206 0 l 21 0 l 21 903 l 206 903 l 206 801 q 267 883 226 849 q 371 917 307 917 z "},"o":{"ha":550,"x_min":21,"x_max":529,"o":"m 21 597 q 84 840 21 763 q 275 917 147 917 q 466 840 403 917 q 529 597 529 763 l 529 306 q 466 63 529 140 q 275 -14 403 -14 q 84 63 147 -14 q 21 306 21 140 l 21 597 m 206 299 q 220 187 206 217 q 275 157 235 157 q 330 187 315 157 q 344 299 344 217 l 344 604 q 329 716 344 686 q 275 746 314 746 q 220 717 235 746 q 206 604 206 688 l 206 299 z "},"ó":{"ha":550,"x_min":21,"x_max":529,"o":"m 21 597 q 84 840 21 763 q 275 917 147 917 q 466 840 403 917 q 529 597 529 763 l 529 306 q 466 63 529 140 q 275 -14 403 -14 q 84 63 147 -14 q 21 306 21 140 l 21 597 m 206 299 q 220 187 206 217 q 275 157 235 157 q 330 187 315 157 q 344 299 344 217 l 344 604 q 329 716 344 686 q 275 746 314 746 q 220 717 235 746 q 206 604 206 688 l 206 299 z "},"ô":{"ha":550,"x_min":21,"x_max":529,"o":"m 21 597 q 84 840 21 763 q 275 917 147 917 q 466 840 403 917 q 529 597 529 763 l 529 306 q 466 63 529 140 q 275 -14 403 -14 q 84 63 147 -14 q 21 306 21 140 l 21 597 m 206 299 q 220 187 206 217 q 275 157 235 157 q 330 187 315 157 q 344 299 344 217 l 344 604 q 329 716 344 686 q 275 746 314 746 q 220 717 235 746 q 206 604 206 688 l 206 299 z "},"ö":{"ha":550,"x_min":21,"x_max":529,"o":"m 21 597 q 84 840 21 763 q 275 917 147 917 q 466 840 403 917 q 529 597 529 763 l 529 306 q 466 63 529 140 q 275 -14 403 -14 q 84 63 147 -14 q 21 306 21 140 l 21 597 m 206 299 q 220 187 206 217 q 275 157 235 157 q 330 187 315 157 q 344 299 344 217 l 344 604 q 329 716 344 686 q 275 746 314 746 q 220 717 235 746 q 206 604 206 688 l 206 299 z "},"ò":{"ha":550,"x_min":21,"x_max":529,"o":"m 21 597 q 84 840 21 763 q 275 917 147 917 q 466 840 403 917 q 529 597 529 763 l 529 306 q 466 63 529 140 q 275 -14 403 -14 q 84 63 147 -14 q 21 306 21 140 l 21 597 m 206 299 q 220 187 206 217 q 275 157 235 157 q 330 187 315 157 q 344 299 344 217 l 344 604 q 329 716 344 686 q 275 746 314 746 q 220 717 235 746 q 206 604 206 688 l 206 299 z "},"ő":{"ha":550,"x_min":21,"x_max":536,"o":"m 21 597 q 84 840 21 763 q 275 917 147 917 q 466 840 403 917 q 529 597 529 763 l 529 306 q 466 63 529 140 q 275 -14 403 -14 q 84 63 147 -14 q 21 306 21 140 l 21 597 m 206 299 q 220 187 206 217 q 275 157 235 157 q 330 187 315 157 q 344 299 344 217 l 344 604 q 329 716 344 686 q 275 746 314 746 q 220 717 235 746 q 206 604 206 688 l 206 299 z "},"ō":{"ha":550,"x_min":21,"x_max":529,"o":"m 21 597 q 84 840 21 763 q 275 917 147 917 q 466 840 403 917 q 529 597 529 763 l 529 306 q 466 63 529 140 q 275 -14 403 -14 q 84 63 147 -14 q 21 306 21 140 l 21 597 m 206 299 q 220 187 206 217 q 275 157 235 157 q 330 187 315 157 q 344 299 344 217 l 344 604 q 329 716 344 686 q 275 746 314 746 q 220 717 235 746 q 206 604 206 688 l 206 299 z "},"ø":{"ha":550,"x_min":21,"x_max":529,"o":"m 457 850 q 529 597 529 771 l 529 306 q 466 63 529 140 q 275 -14 403 -14 q 151 10 206 -14 l 106 -118 l 32 -118 l 93 53 q 21 306 21 132 l 21 597 q 84 840 21 763 q 275 917 147 917 q 399 893 344 917 l 444 1021 l 518 1021 l 457 850 m 206 361 l 332 710 q 310 738 324 729 q 275 746 296 746 q 220 717 235 746 q 206 604 206 688 l 206 361 m 275 157 q 330 187 315 157 q 344 299 344 217 l 344 542 l 218 192 q 239 165 225 172 q 275 157 253 157 z "},"õ":{"ha":550,"x_min":21,"x_max":529,"o":"m 21 597 q 84 840 21 763 q 275 917 147 917 q 466 840 403 917 q 529 597 529 763 l 529 306 q 466 63 529 140 q 275 -14 403 -14 q 84 63 147 -14 q 21 306 21 140 l 21 597 m 206 299 q 220 187 206 217 q 275 157 235 157 q 330 187 315 157 q 344 299 344 217 l 344 604 q 329 716 344 686 q 275 746 314 746 q 220 717 235 746 q 206 604 206 688 l 206 299 z "},"œ":{"ha":864,"x_min":21,"x_max":843,"o":"m 590 917 q 781 840 718 917 q 843 597 843 763 l 843 417 l 519 417 l 519 299 q 535 187 519 217 q 590 157 550 157 q 644 186 631 157 q 658 299 658 215 l 658 354 l 843 354 l 843 306 q 781 63 843 140 q 590 -14 718 -14 q 394 68 458 -14 q 236 -14 339 -14 q 78 65 135 -14 q 21 306 21 143 l 21 597 q 78 838 21 760 q 236 917 135 917 q 394 835 339 917 q 590 917 458 917 m 335 604 q 322 715 335 683 q 272 746 310 746 q 231 733 246 746 q 211 691 217 721 q 206 604 206 661 l 206 299 q 211 212 206 242 q 231 169 217 182 q 272 157 246 157 q 322 188 310 157 q 335 299 335 218 l 335 604 m 658 604 q 644 716 658 686 q 590 746 629 746 q 535 716 550 746 q 519 604 519 686 l 519 542 l 658 542 l 658 604 z "},"p":{"ha":550,"x_min":21,"x_max":529,"o":"m 371 917 q 468 887 433 917 q 516 795 503 857 q 529 631 529 733 l 529 272 q 516 108 529 169 q 468 16 503 46 q 371 -14 433 -14 q 267 20 307 -14 q 206 101 226 54 l 206 -278 l 21 -278 l 21 903 l 206 903 l 206 801 q 267 883 226 849 q 371 917 307 917 m 344 646 q 328 723 344 700 q 278 746 313 746 q 223 722 240 746 q 206 644 206 697 l 206 258 q 223 181 206 206 q 278 157 240 157 q 328 180 313 157 q 344 257 344 203 l 344 646 z "},"þ":{"ha":550,"x_min":21,"x_max":529,"o":"m 371 917 q 468 887 433 917 q 516 795 503 857 q 529 631 529 733 l 529 272 q 516 108 529 169 q 468 16 503 46 q 371 -14 433 -14 q 267 20 307 -14 q 206 101 226 54 l 206 -278 l 21 -278 l 21 1111 l 206 1111 l 206 801 q 267 883 226 849 q 371 917 307 917 m 344 646 q 328 723 344 700 q 278 746 313 746 q 223 722 240 746 q 206 644 206 697 l 206 258 q 223 181 206 206 q 278 157 240 157 q 328 180 313 157 q 344 257 344 203 l 344 646 z "},"q":{"ha":550,"x_min":21,"x_max":529,"o":"m 179 917 q 283 883 243 917 q 344 801 324 849 l 344 903 l 529 903 l 529 -278 l 344 -278 l 344 101 q 283 20 324 54 q 179 -14 243 -14 q 82 16 117 -14 q 34 108 47 46 q 21 272 21 169 l 21 631 q 34 795 21 733 q 82 887 47 857 q 179 917 117 917 m 206 257 q 222 180 206 203 q 272 157 238 157 q 327 181 310 157 q 344 258 344 206 l 344 644 q 327 722 344 697 q 272 746 310 746 q 222 723 238 746 q 206 646 206 700 l 206 257 z "},"r":{"ha":546,"x_min":21,"x_max":525,"o":"m 376 917 q 469 886 438 917 q 513 795 501 856 q 525 632 525 735 l 525 582 l 339 582 l 339 649 q 326 723 339 700 q 279 746 313 746 q 225 717 244 746 q 206 636 206 688 l 206 0 l 21 0 l 21 903 l 206 903 l 206 799 q 269 882 228 847 q 376 917 311 917 z "},"ŕ":{"ha":546,"x_min":21,"x_max":525,"o":"m 376 917 q 469 886 438 917 q 513 795 501 856 q 525 632 525 735 l 525 582 l 339 582 l 339 649 q 326 723 339 700 q 279 746 313 746 q 225 717 244 746 q 206 636 206 688 l 206 0 l 21 0 l 21 903 l 206 903 l 206 799 q 269 882 228 847 q 376 917 311 917 z "},"ř":{"ha":546,"x_min":21,"x_max":525,"o":"m 376 917 q 469 886 438 917 q 513 795 501 856 q 525 632 525 735 l 525 582 l 339 582 l 339 649 q 326 723 339 700 q 279 746 313 746 q 225 717 244 746 q 206 636 206 688 l 206 0 l 21 0 l 21 903 l 206 903 l 206 799 q 269 882 228 847 q 376 917 311 917 z "},"ŗ":{"ha":546,"x_min":21,"x_max":525,"o":"m 376 917 q 469 886 438 917 q 513 795 501 856 q 525 632 525 735 l 525 582 l 339 582 l 339 649 q 326 723 339 700 q 279 746 313 746 q 225 717 244 746 q 206 636 206 688 l 206 0 l 21 0 l 21 903 l 206 903 l 206 799 q 269 882 228 847 q 376 917 311 917 m 115 -197 q 103 -199 111 -199 q 63 -183 78 -199 q 49 -142 49 -167 q 67 -95 49 -114 q 114 -76 86 -76 q 159 -94 140 -76 q 178 -147 178 -112 q 67 -312 178 -258 l 67 -251 q 100 -228 89 -240 q 115 -197 111 -215 z "},"s":{"ha":550,"x_min":21,"x_max":529,"o":"m 353 522 q 451 439 415 475 q 508 355 488 403 q 529 239 529 307 q 471 55 529 124 q 282 -14 413 -14 q 131 17 188 -14 q 47 119 74 49 q 21 313 21 190 l 206 313 q 223 190 206 224 q 282 157 240 157 q 331 178 317 157 q 344 239 344 200 q 333 290 344 268 q 291 341 322 313 q 197 415 260 369 q 103 487 136 458 q 47 563 71 515 q 24 679 24 611 q 83 850 24 783 q 267 917 143 917 q 518 617 518 917 l 332 617 q 316 717 332 689 q 267 746 300 746 q 224 727 239 746 q 208 679 208 708 q 228 622 208 643 q 310 554 247 600 l 353 522 z "},"ś":{"ha":550,"x_min":21,"x_max":529,"o":"m 353 522 q 451 439 415 475 q 508 355 488 403 q 529 239 529 307 q 471 55 529 124 q 282 -14 413 -14 q 131 17 188 -14 q 47 119 74 49 q 21 313 21 190 l 206 313 q 223 190 206 224 q 282 157 240 157 q 331 178 317 157 q 344 239 344 200 q 333 290 344 268 q 291 341 322 313 q 197 415 260 369 q 103 487 136 458 q 47 563 71 515 q 24 679 24 611 q 83 850 24 783 q 267 917 143 917 q 518 617 518 917 l 332 617 q 316 717 332 689 q 267 746 300 746 q 224 727 239 746 q 208 679 208 708 q 228 622 208 643 q 310 554 247 600 l 353 522 z "},"š":{"ha":550,"x_min":21,"x_max":529,"o":"m 353 522 q 451 439 415 475 q 508 355 488 403 q 529 239 529 307 q 471 55 529 124 q 282 -14 413 -14 q 131 17 188 -14 q 47 119 74 49 q 21 313 21 190 l 206 313 q 223 190 206 224 q 282 157 240 157 q 331 178 317 157 q 344 239 344 200 q 333 290 344 268 q 291 341 322 313 q 197 415 260 369 q 103 487 136 458 q 47 563 71 515 q 24 679 24 611 q 83 850 24 783 q 267 917 143 917 q 518 617 518 917 l 332 617 q 316 717 332 689 q 267 746 300 746 q 224 727 239 746 q 208 679 208 708 q 228 622 208 643 q 310 554 247 600 l 353 522 z "},"ş":{"ha":550,"x_min":21,"x_max":529,"o":"m 529 239 q 476 61 529 129 q 307 -14 424 -7 l 288 -93 q 340 -89 317 -89 q 442 -176 442 -89 q 403 -252 442 -228 q 313 -282 364 -276 q 190 -287 261 -287 l 192 -232 q 332 -222 292 -232 q 372 -176 372 -211 q 356 -142 372 -153 q 307 -132 340 -132 q 219 -140 289 -132 l 239 -12 q 72 72 122 -1 q 21 313 21 146 l 206 313 q 223 190 206 224 q 282 157 240 157 q 331 178 317 157 q 344 239 344 200 q 333 290 344 268 q 291 341 322 313 q 197 415 260 369 q 103 487 136 458 q 47 563 71 515 q 24 679 24 611 q 83 850 24 783 q 267 917 143 917 q 518 617 518 917 l 332 617 q 316 717 332 689 q 267 746 300 746 q 224 727 239 746 q 208 679 208 708 q 228 622 208 643 q 310 554 247 600 l 353 522 q 451 439 415 475 q 508 355 488 403 q 529 239 529 307 z "},"ș":{"ha":550,"x_min":21,"x_max":529,"o":"m 353 522 q 451 439 415 475 q 508 355 488 403 q 529 239 529 307 q 471 55 529 124 q 282 -14 413 -14 q 131 17 188 -14 q 47 119 74 49 q 21 313 21 190 l 206 313 q 223 190 206 224 q 282 157 240 157 q 331 178 317 157 q 344 239 344 200 q 333 290 344 268 q 291 341 322 313 q 197 415 260 369 q 103 487 136 458 q 47 563 71 515 q 24 679 24 611 q 83 850 24 783 q 267 917 143 917 q 518 617 518 917 l 332 617 q 316 717 332 689 q 267 746 300 746 q 224 727 239 746 q 208 679 208 708 q 228 622 208 643 q 310 554 247 600 l 353 522 m 276 -197 q 264 -199 272 -199 q 224 -183 239 -199 q 210 -142 210 -167 q 228 -95 210 -114 q 275 -76 247 -76 q 320 -94 301 -76 q 339 -147 339 -112 q 228 -312 339 -258 l 228 -251 q 261 -228 250 -240 q 276 -197 272 -215 z "},"ß":{"ha":578,"x_min":21,"x_max":557,"o":"m 436 583 q 557 306 557 514 q 531 125 557 192 q 445 29 504 58 q 285 0 386 0 l 243 0 l 243 171 l 285 171 q 352 208 332 171 q 372 333 372 246 q 350 453 372 415 q 281 492 328 492 l 243 492 l 243 664 l 281 664 q 331 700 317 664 q 344 804 344 736 q 329 919 344 883 q 278 954 314 954 q 223 914 240 954 q 206 781 206 874 l 206 0 l 21 0 l 21 781 q 80 1042 21 960 q 278 1125 139 1125 q 467 1051 406 1125 q 529 843 529 976 q 436 583 529 651 z "},"t":{"ha":458,"x_min":21,"x_max":438,"o":"m 438 903 l 438 732 l 294 732 l 294 303 q 313 199 294 226 q 378 171 331 171 l 438 171 l 438 0 l 333 0 q 190 30 238 0 q 125 123 142 60 q 108 303 108 186 l 108 732 l 21 732 l 21 903 q 102 977 78 919 q 125 1111 126 1035 l 310 1111 q 285 974 310 1033 q 211 903 260 915 l 438 903 z "},"ŧ":{"ha":458,"x_min":17,"x_max":438,"o":"m 438 732 l 294 732 l 294 521 l 413 521 l 413 465 l 294 465 l 294 303 q 313 199 294 226 q 378 171 331 171 l 438 171 l 438 0 l 333 0 q 190 30 238 0 q 125 123 142 60 q 108 303 108 186 l 108 465 l 17 465 l 17 521 l 108 521 l 108 732 l 21 732 l 21 903 q 102 977 78 919 q 125 1111 126 1035 l 310 1111 q 285 974 310 1033 q 211 903 260 915 l 438 903 l 438 732 z "},"ť":{"ha":458,"x_min":21,"x_max":458,"o":"m 403 958 l 347 958 l 389 1125 l 458 1125 l 403 958 m 438 903 l 438 732 l 294 732 l 294 303 q 313 199 294 226 q 378 171 331 171 l 438 171 l 438 0 l 333 0 q 190 30 238 0 q 125 123 142 60 q 108 303 108 186 l 108 732 l 21 732 l 21 903 q 102 977 78 919 q 125 1111 126 1035 l 310 1111 q 285 974 310 1033 q 211 903 260 915 l 438 903 z "},"ţ":{"ha":458,"x_min":21,"x_max":444,"o":"m 290 -83 q 343 -79 319 -79 q 444 -167 444 -79 q 406 -242 444 -218 q 315 -272 367 -267 q 193 -278 264 -278 l 194 -222 q 335 -212 294 -222 q 375 -167 375 -201 q 359 -133 375 -143 q 310 -122 343 -122 q 222 -131 292 -122 l 243 8 q 158 57 188 22 q 119 149 129 92 q 108 303 108 207 l 108 732 l 21 732 l 21 903 q 102 977 78 919 q 125 1111 126 1035 l 310 1111 q 285 974 310 1033 q 211 903 260 915 l 438 903 l 438 732 l 294 732 l 294 303 q 313 199 294 226 q 378 171 331 171 l 438 171 l 438 0 l 333 0 l 310 0 l 290 -83 z "},"ț":{"ha":458,"x_min":21,"x_max":438,"o":"m 438 903 l 438 732 l 294 732 l 294 303 q 313 199 294 226 q 378 171 331 171 l 438 171 l 438 0 l 333 0 q 190 30 238 0 q 125 123 142 60 q 108 303 108 186 l 108 732 l 21 732 l 21 903 q 102 977 78 919 q 125 1111 126 1035 l 310 1111 q 285 974 310 1033 q 211 903 260 915 l 438 903 m 279 -187 q 267 -189 275 -189 q 227 -173 242 -189 q 213 -132 213 -157 q 231 -85 213 -104 q 278 -67 250 -67 q 323 -85 304 -67 q 342 -137 342 -103 q 231 -303 342 -249 l 231 -242 q 264 -218 253 -231 q 279 -187 275 -206 z "},"u":{"ha":550,"x_min":21,"x_max":543,"o":"m 344 903 l 529 903 l 529 133 q 531 56 529 82 q 543 0 533 31 l 381 0 q 353 44 361 14 q 344 101 344 75 q 283 20 324 54 q 179 -14 243 -14 q 82 16 117 -14 q 34 108 47 46 q 21 272 21 169 l 21 903 l 206 903 l 206 257 q 222 180 206 203 q 272 157 238 157 q 327 181 310 157 q 344 258 344 206 l 344 903 z "},"ú":{"ha":550,"x_min":21,"x_max":543,"o":"m 344 903 l 529 903 l 529 133 q 531 56 529 82 q 543 0 533 31 l 381 0 q 353 44 361 14 q 344 101 344 75 q 283 20 324 54 q 179 -14 243 -14 q 82 16 117 -14 q 34 108 47 46 q 21 272 21 169 l 21 903 l 206 903 l 206 257 q 222 180 206 203 q 272 157 238 157 q 327 181 310 157 q 344 258 344 206 l 344 903 z "},"û":{"ha":550,"x_min":21,"x_max":543,"o":"m 344 903 l 529 903 l 529 133 q 531 56 529 82 q 543 0 533 31 l 381 0 q 353 44 361 14 q 344 101 344 75 q 283 20 324 54 q 179 -14 243 -14 q 82 16 117 -14 q 34 108 47 46 q 21 272 21 169 l 21 903 l 206 903 l 206 257 q 222 180 206 203 q 272 157 238 157 q 327 181 310 157 q 344 258 344 206 l 344 903 z "},"ü":{"ha":550,"x_min":21,"x_max":543,"o":"m 344 903 l 529 903 l 529 133 q 531 56 529 82 q 543 0 533 31 l 381 0 q 353 44 361 14 q 344 101 344 75 q 283 20 324 54 q 179 -14 243 -14 q 82 16 117 -14 q 34 108 47 46 q 21 272 21 169 l 21 903 l 206 903 l 206 257 q 222 180 206 203 q 272 157 238 157 q 327 181 310 157 q 344 258 344 206 l 344 903 z "},"ù":{"ha":550,"x_min":21,"x_max":543,"o":"m 344 903 l 529 903 l 529 133 q 531 56 529 82 q 543 0 533 31 l 381 0 q 353 44 361 14 q 344 101 344 75 q 283 20 324 54 q 179 -14 243 -14 q 82 16 117 -14 q 34 108 47 46 q 21 272 21 169 l 21 903 l 206 903 l 206 257 q 222 180 206 203 q 272 157 238 157 q 327 181 310 157 q 344 258 344 206 l 344 903 z "},"ű":{"ha":550,"x_min":21,"x_max":543,"o":"m 344 903 l 529 903 l 529 133 q 531 56 529 82 q 543 0 533 31 l 381 0 q 353 44 361 14 q 344 101 344 75 q 283 20 324 54 q 179 -14 243 -14 q 82 16 117 -14 q 34 108 47 46 q 21 272 21 169 l 21 903 l 206 903 l 206 257 q 222 180 206 203 q 272 157 238 157 q 327 181 310 157 q 344 258 344 206 l 344 903 z "},"ū":{"ha":550,"x_min":21,"x_max":543,"o":"m 344 903 l 529 903 l 529 133 q 531 56 529 82 q 543 0 533 31 l 381 0 q 353 44 361 14 q 344 101 344 75 q 283 20 324 54 q 179 -14 243 -14 q 82 16 117 -14 q 34 108 47 46 q 21 272 21 169 l 21 903 l 206 903 l 206 257 q 222 180 206 203 q 272 157 238 157 q 327 181 310 157 q 344 258 344 206 l 344 903 z "},"ų":{"ha":550,"x_min":21,"x_max":557,"o":"m 376 -139 q 417 -206 376 -183 q 557 -232 457 -229 l 501 -287 q 342 -260 406 -287 q 279 -151 279 -233 q 335 -50 279 -86 q 474 0 390 -14 l 381 0 q 353 44 361 14 q 344 101 344 75 q 283 20 324 54 q 179 -14 243 -14 q 82 16 117 -14 q 34 108 47 46 q 21 272 21 169 l 21 903 l 206 903 l 206 257 q 222 180 206 203 q 272 157 238 157 q 327 181 310 157 q 344 258 344 206 l 344 903 l 529 903 l 529 133 q 531 56 529 82 q 543 0 533 31 q 416 -65 456 -33 q 376 -139 376 -97 z "},"ů":{"ha":550,"x_min":21,"x_max":543,"o":"m 344 903 l 529 903 l 529 133 q 531 56 529 82 q 543 0 533 31 l 381 0 q 353 44 361 14 q 344 101 344 75 q 283 20 324 54 q 179 -14 243 -14 q 82 16 117 -14 q 34 108 47 46 q 21 272 21 169 l 21 903 l 206 903 l 206 257 q 222 180 206 203 q 272 157 238 157 q 327 181 310 157 q 344 258 344 206 l 344 903 z "},"v":{"ha":557,"x_min":21,"x_max":536,"o":"m 206 903 l 279 238 l 351 903 l 536 903 l 404 0 l 153 0 l 21 903 l 206 903 z "},"w":{"ha":1046,"x_min":21,"x_max":1025,"o":"m 668 903 l 668 181 l 817 903 l 1025 903 l 793 0 l 483 0 l 483 676 l 332 0 l 21 0 l 21 903 l 206 903 l 206 181 l 354 903 l 668 903 z "},"ẃ":{"ha":1046,"x_min":21,"x_max":1025,"o":"m 668 903 l 668 181 l 817 903 l 1025 903 l 793 0 l 483 0 l 483 676 l 332 0 l 21 0 l 21 903 l 206 903 l 206 181 l 354 903 l 668 903 z "},"ŵ":{"ha":1046,"x_min":21,"x_max":1025,"o":"m 668 903 l 668 181 l 817 903 l 1025 903 l 793 0 l 483 0 l 483 676 l 332 0 l 21 0 l 21 903 l 206 903 l 206 181 l 354 903 l 668 903 z "},"ẅ":{"ha":1046,"x_min":21,"x_max":1025,"o":"m 668 903 l 668 181 l 817 903 l 1025 903 l 793 0 l 483 0 l 483 676 l 332 0 l 21 0 l 21 903 l 206 903 l 206 181 l 354 903 l 668 903 z "},"ẁ":{"ha":1046,"x_min":21,"x_max":1025,"o":"m 668 903 l 668 181 l 817 903 l 1025 903 l 793 0 l 483 0 l 483 676 l 332 0 l 21 0 l 21 903 l 206 903 l 206 181 l 354 903 l 668 903 z "},"x":{"ha":636,"x_min":21,"x_max":615,"o":"m 318 332 l 219 0 l 21 0 l 196 451 l 21 903 l 219 903 l 318 572 l 418 903 l 615 903 l 440 451 l 615 0 l 418 0 l 318 332 z "},"y":{"ha":550,"x_min":21,"x_max":529,"o":"m 344 903 l 529 903 l 529 25 q 511 -154 529 -90 q 442 -248 493 -218 q 292 -278 390 -278 l 60 -278 l 60 -107 l 247 -107 q 323 -79 301 -107 q 344 25 344 -51 l 344 101 q 283 20 324 54 q 179 -14 243 -14 q 82 16 117 -14 q 34 108 47 46 q 21 272 21 169 l 21 903 l 206 903 l 206 257 q 222 180 206 203 q 272 157 238 157 q 327 181 310 157 q 344 258 344 206 l 344 903 z "},"ý":{"ha":550,"x_min":21,"x_max":529,"o":"m 344 903 l 529 903 l 529 25 q 511 -154 529 -90 q 442 -248 493 -218 q 292 -278 390 -278 l 60 -278 l 60 -107 l 247 -107 q 323 -79 301 -107 q 344 25 344 -51 l 344 101 q 283 20 324 54 q 179 -14 243 -14 q 82 16 117 -14 q 34 108 47 46 q 21 272 21 169 l 21 903 l 206 903 l 206 257 q 222 180 206 203 q 272 157 238 157 q 327 181 310 157 q 344 258 344 206 l 344 903 z "},"ŷ":{"ha":550,"x_min":21,"x_max":529,"o":"m 344 903 l 529 903 l 529 25 q 511 -154 529 -90 q 442 -248 493 -218 q 292 -278 390 -278 l 60 -278 l 60 -107 l 247 -107 q 323 -79 301 -107 q 344 25 344 -51 l 344 101 q 283 20 324 54 q 179 -14 243 -14 q 82 16 117 -14 q 34 108 47 46 q 21 272 21 169 l 21 903 l 206 903 l 206 257 q 222 180 206 203 q 272 157 238 157 q 327 181 310 157 q 344 258 344 206 l 344 903 z "},"ÿ":{"ha":550,"x_min":21,"x_max":529,"o":"m 344 903 l 529 903 l 529 25 q 511 -154 529 -90 q 442 -248 493 -218 q 292 -278 390 -278 l 60 -278 l 60 -107 l 247 -107 q 323 -79 301 -107 q 344 25 344 -51 l 344 101 q 283 20 324 54 q 179 -14 243 -14 q 82 16 117 -14 q 34 108 47 46 q 21 272 21 169 l 21 903 l 206 903 l 206 257 q 222 180 206 203 q 272 157 238 157 q 327 181 310 157 q 344 258 344 206 l 344 903 z "},"ỳ":{"ha":550,"x_min":21,"x_max":529,"o":"m 344 903 l 529 903 l 529 25 q 511 -154 529 -90 q 442 -248 493 -218 q 292 -278 390 -278 l 60 -278 l 60 -107 l 247 -107 q 323 -79 301 -107 q 344 25 344 -51 l 344 101 q 283 20 324 54 q 179 -14 243 -14 q 82 16 117 -14 q 34 108 47 46 q 21 272 21 169 l 21 903 l 206 903 l 206 257 q 222 180 206 203 q 272 157 238 157 q 327 181 310 157 q 344 258 344 206 l 344 903 z "},"z":{"ha":507,"x_min":21,"x_max":486,"o":"m 288 732 l 21 732 l 21 903 l 486 903 l 486 732 l 219 171 l 486 171 l 486 0 l 21 0 l 21 171 l 288 732 z "},"ź":{"ha":507,"x_min":21,"x_max":486,"o":"m 288 732 l 21 732 l 21 903 l 486 903 l 486 732 l 219 171 l 486 171 l 486 0 l 21 0 l 21 171 l 288 732 z "},"ž":{"ha":507,"x_min":21,"x_max":486,"o":"m 288 732 l 21 732 l 21 903 l 486 903 l 486 732 l 219 171 l 486 171 l 486 0 l 21 0 l 21 171 l 288 732 z "},"ż":{"ha":507,"x_min":21,"x_max":486,"o":"m 288 732 l 21 732 l 21 903 l 486 903 l 486 732 l 219 171 l 486 171 l 486 0 l 21 0 l 21 171 l 288 732 z "},"⁄":{"ha":514,"x_min":21,"x_max":507,"o":"m 507 1125 l 94 -14 l 21 -14 l 433 1125 l 507 1125 z "},".":{"ha":243,"x_min":21,"x_max":222,"o":"m 122 -14 q 50 14 79 -14 q 21 86 21 42 q 50 160 21 132 q 122 188 79 188 q 193 160 164 188 q 222 86 222 132 q 193 14 222 42 q 122 -14 164 -14 z "},",":{"ha":243,"x_min":21,"x_max":222,"o":"m 21 86 q 50 160 21 132 q 122 188 79 188 q 194 156 165 188 q 222 60 222 124 q 185 -64 222 1 q 46 -165 147 -129 l 46 -101 q 135 0 125 -67 q 111 -3 118 -3 q 48 22 75 -3 q 21 86 21 47 z "},":":{"ha":243,"x_min":21,"x_max":222,"o":"m 122 440 q 50 468 79 440 q 21 540 21 496 q 50 614 21 586 q 122 642 79 642 q 193 614 164 642 q 222 540 222 586 q 193 468 222 496 q 122 440 164 440 m 122 -14 q 50 14 79 -14 q 21 86 21 42 q 50 160 21 132 q 122 188 79 188 q 193 160 164 188 q 222 86 222 132 q 193 14 222 42 q 122 -14 164 -14 z "},";":{"ha":243,"x_min":21,"x_max":222,"o":"m 122 440 q 50 468 79 440 q 21 540 21 496 q 50 614 21 586 q 122 642 79 642 q 193 614 164 642 q 222 540 222 586 q 193 468 222 496 q 122 440 164 440 m 21 86 q 50 160 21 132 q 122 188 79 188 q 194 156 165 188 q 222 60 222 124 q 185 -64 222 1 q 46 -165 147 -129 l 46 -101 q 135 0 125 -67 q 111 -3 118 -3 q 48 22 75 -3 q 21 86 21 47 z "},"…":{"ha":725,"x_min":21,"x_max":704,"o":"m 122 -14 q 50 14 79 -14 q 21 86 21 42 q 50 160 21 132 q 122 188 79 188 q 193 160 164 188 q 222 86 222 132 q 193 14 222 42 q 122 -14 164 -14 m 363 -14 q 290 14 319 -14 q 261 86 261 42 q 290 160 261 132 q 363 188 319 188 q 433 160 404 188 q 463 86 463 132 q 433 14 463 42 q 363 -14 404 -14 m 604 -14 q 532 14 561 -14 q 503 86 503 42 q 532 160 503 132 q 604 188 561 188 q 675 160 646 188 q 704 86 704 132 q 675 14 704 42 q 604 -14 646 -14 z "},"!":{"ha":243,"x_min":21,"x_max":222,"o":"m 203 347 l 40 347 l 29 1111 l 214 1111 l 203 347 m 122 -14 q 50 14 79 -14 q 21 86 21 42 q 50 160 21 132 q 122 188 79 188 q 193 160 164 188 q 222 86 222 132 q 193 14 222 42 q 122 -14 164 -14 z "},"¡":{"ha":243,"x_min":21,"x_max":222,"o":"m 122 917 q 193 889 164 917 q 222 817 222 861 q 193 743 222 771 q 122 715 164 715 q 50 743 79 715 q 21 817 21 771 q 50 889 21 861 q 122 917 79 917 m 29 -208 l 40 556 l 203 556 l 214 -208 l 29 -208 z "},"?":{"ha":550,"x_min":21,"x_max":529,"o":"m 282 1125 q 467 1056 406 1125 q 529 869 529 986 q 506 749 529 797 q 435 638 482 700 q 376 554 399 590 q 339 466 354 518 q 324 347 324 414 l 161 347 q 178 503 161 438 q 219 611 196 569 q 279 701 243 653 q 329 776 314 746 q 344 847 344 807 q 282 940 344 940 q 226 906 246 940 q 206 783 206 871 l 21 783 q 85 1041 21 957 q 282 1125 150 1125 m 242 -14 q 170 14 199 -14 q 142 86 142 42 q 170 160 142 132 q 242 188 199 188 q 314 160 285 188 q 343 86 343 132 q 314 14 343 42 q 242 -14 285 -14 z "},"¿":{"ha":550,"x_min":21,"x_max":529,"o":"m 308 917 q 380 889 351 917 q 408 817 408 861 q 380 743 408 771 q 308 715 351 715 q 236 743 265 715 q 207 817 207 771 q 236 889 207 861 q 308 917 265 917 m 268 -222 q 83 -153 144 -222 q 21 33 21 -83 q 44 153 21 104 q 117 265 68 201 q 175 349 153 313 q 213 437 197 385 q 228 556 228 489 l 389 556 q 372 399 389 465 q 331 292 354 333 q 271 201 307 250 q 221 126 236 157 q 206 56 206 96 q 268 -37 206 -37 q 324 -3 304 -37 q 344 119 344 32 l 529 119 q 465 -138 529 -54 q 268 -222 400 -222 z "},"·":{"ha":243,"x_min":21,"x_max":222,"o":"m 122 356 q 50 383 79 356 q 21 456 21 411 q 50 529 21 501 q 122 557 79 557 q 193 529 164 557 q 222 456 222 501 q 193 383 222 411 q 122 356 164 356 z "},"•":{"ha":386,"x_min":21,"x_max":365,"o":"m 193 285 q 71 332 121 285 q 21 454 21 379 q 70 580 21 532 q 193 628 119 628 q 316 580 267 628 q 365 454 365 532 q 315 332 365 379 q 193 285 265 285 z "},"*":{"ha":383,"x_min":21,"x_max":363,"o":"m 219 964 l 335 1031 l 363 983 l 247 917 l 363 850 l 335 803 l 219 869 l 219 708 l 164 708 l 164 869 l 49 803 l 21 850 l 136 917 l 21 983 l 49 1031 l 164 964 l 164 1125 l 219 1125 l 219 964 z "},"#":{"ha":1015,"x_min":21,"x_max":994,"o":"m 994 771 l 994 701 l 750 701 l 643 410 l 888 410 l 888 340 l 618 340 l 490 -14 l 417 -14 l 544 340 l 313 340 l 185 -14 l 111 -14 l 239 340 l 21 340 l 21 410 l 264 410 l 371 701 l 128 701 l 128 771 l 396 771 l 524 1125 l 597 1125 l 469 771 l 701 771 l 829 1125 l 903 1125 l 775 771 l 994 771 m 338 410 l 569 410 l 676 701 l 444 701 l 338 410 z "},"/":{"ha":528,"x_min":21,"x_max":507,"o":"m 507 1125 l 94 -14 l 21 -14 l 433 1125 l 507 1125 z "},"\\":{"ha":528,"x_min":21,"x_max":507,"o":"m 507 -14 l 433 -14 l 21 1125 l 94 1125 l 507 -14 z "},"(":{"ha":222,"x_min":21,"x_max":201,"o":"m 201 1125 q 117 847 143 983 q 90 556 90 710 q 117 265 90 401 q 201 -14 143 128 l 132 -14 q 47 265 74 128 q 21 556 21 401 q 47 847 21 710 q 132 1125 74 983 l 201 1125 z "},")":{"ha":222,"x_min":21,"x_max":201,"o":"m 90 1125 q 175 847 149 983 q 201 556 201 710 q 175 265 201 401 q 90 -14 149 128 l 21 -14 q 106 265 79 128 q 132 556 132 401 q 106 847 132 710 q 21 1125 79 983 l 90 1125 z "},"{":{"ha":222,"x_min":21,"x_max":201,"o":"m 201 1069 q 147 1034 161 1069 q 132 935 132 999 q 133 874 132 901 q 136 828 135 847 q 142 719 142 756 q 131 624 142 661 q 90 574 119 586 l 90 538 q 131 488 119 525 q 142 393 142 451 q 136 282 142 357 q 133 237 135 264 q 132 176 132 210 q 147 77 132 113 q 201 42 161 42 l 201 -14 q 93 39 122 -14 q 64 185 64 92 q 69 297 64 225 q 72 341 71 317 q 74 393 74 365 q 63 469 74 443 q 21 496 51 496 l 21 615 q 63 642 51 615 q 75 719 75 669 q 74 772 75 747 q 71 815 72 796 q 65 928 65 888 q 94 1072 65 1019 q 201 1125 124 1125 l 201 1069 z "},"}":{"ha":222,"x_min":21,"x_max":201,"o":"m 21 1125 q 129 1072 100 1125 q 158 926 158 1019 q 153 814 158 886 q 150 770 151 794 q 149 718 149 746 q 160 642 149 668 q 201 615 171 615 l 201 496 q 159 469 171 496 q 147 392 147 442 q 149 340 147 364 q 151 296 150 315 q 157 183 157 224 q 128 39 157 92 q 21 -14 99 -14 l 21 42 q 76 77 61 42 q 90 176 90 113 q 89 237 90 210 q 86 283 88 264 q 81 392 81 356 q 92 488 81 450 q 132 538 103 525 l 132 574 q 92 623 103 586 q 81 718 81 660 q 86 829 81 754 q 89 874 88 847 q 90 935 90 901 q 76 1034 90 999 q 21 1069 61 1069 l 21 1125 z "},"[":{"ha":222,"x_min":21,"x_max":201,"o":"m 21 1125 l 201 1125 l 201 1069 l 90 1069 l 90 42 l 201 42 l 201 -14 l 21 -14 l 21 1125 z "},"]":{"ha":222,"x_min":21,"x_max":201,"o":"m 21 1069 l 21 1125 l 201 1125 l 201 -14 l 21 -14 l 21 42 l 132 42 l 132 1069 l 21 1069 z "},"-":{"ha":611,"x_min":21,"x_max":590,"o":"m 590 424 l 21 424 l 21 493 l 590 493 l 590 424 z "},"–":{"ha":847,"x_min":21,"x_max":826,"o":"m 826 424 l 21 424 l 21 493 l 826 493 l 826 424 z "},"—":{"ha":1431,"x_min":21,"x_max":1410,"o":"m 1410 424 l 21 424 l 21 493 l 1410 493 l 1410 424 z "},"_":{"ha":847,"x_min":21,"x_max":826,"o":"m 826 -76 l 21 -76 l 21 -7 l 826 -7 l 826 -76 z "},"‚":{"ha":150,"x_min":21,"x_max":132,"o":"m 76 -165 l 21 -165 l 63 182 l 132 182 l 76 -165 z "},"„":{"ha":264,"x_min":21,"x_max":243,"o":"z "},"“":{"ha":264,"x_min":21,"x_max":243,"o":"m 76 1125 l 132 1125 l 90 778 l 21 778 l 76 1125 m 188 1125 l 243 1125 l 201 778 l 132 778 l 188 1125 z "},"”":{"ha":264,"x_min":21,"x_max":243,"o":"m 76 778 l 21 778 l 63 1125 l 132 1125 l 76 778 m 188 778 l 132 778 l 174 1125 l 243 1125 l 188 778 z "},"‘":{"ha":153,"x_min":21,"x_max":132,"o":"m 76 1125 l 132 1125 l 90 778 l 21 778 l 76 1125 z "},"’":{"ha":153,"x_min":21,"x_max":132,"o":"m 76 778 l 21 778 l 63 1125 l 132 1125 l 76 778 z "},"«":{"ha":443,"x_min":21,"x_max":422,"o":"m 21 431 l 21 486 l 228 707 l 228 624 l 74 458 l 228 293 l 228 210 l 21 431 m 215 431 l 215 486 l 422 707 l 422 624 l 268 458 l 422 293 l 422 210 l 215 431 z "},"»":{"ha":443,"x_min":21,"x_max":422,"o":"m 21 707 l 228 486 l 228 431 l 21 210 l 21 293 l 175 458 l 21 624 l 21 707 m 215 707 l 422 486 l 422 431 l 215 210 l 215 293 l 369 458 l 215 624 l 215 707 z "},"‹":{"ha":249,"x_min":21,"x_max":228,"o":"m 21 431 l 21 486 l 228 707 l 228 624 l 74 458 l 228 293 l 228 210 l 21 431 z "},"›":{"ha":249,"x_min":21,"x_max":228,"o":"m 21 707 l 228 486 l 228 431 l 21 210 l 21 293 l 175 458 l 21 624 l 21 707 z "},"\"":{"ha":222,"x_min":21,"x_max":201,"o":"m 90 778 l 21 778 l 21 1125 l 90 1125 l 90 778 m 201 778 l 132 778 l 132 1125 l 201 1125 l 201 778 z "},"'":{"ha":111,"x_min":21,"x_max":90,"o":"m 90 778 l 21 778 l 21 1125 l 90 1125 l 90 778 z "},"¢":{"ha":564,"x_min":21,"x_max":543,"o":"m 317 279 q 431 344 388 289 q 474 497 474 400 l 543 497 q 482 299 543 378 q 317 210 421 219 l 317 -14 l 247 -14 l 247 211 q 83 317 146 228 q 21 556 21 407 q 83 794 21 704 q 247 900 146 883 l 247 1125 l 317 1125 l 317 901 q 482 813 421 892 q 543 614 543 733 l 474 614 q 430 767 474 711 q 317 832 386 822 l 317 279 m 90 556 q 134 365 90 432 q 247 282 178 297 l 247 829 q 134 747 178 814 q 90 556 90 679 z "},"¤":{"ha":478,"x_min":21,"x_max":457,"o":"m 428 556 q 381 365 428 440 l 457 261 l 408 213 l 335 315 q 239 283 294 283 q 143 315 183 283 l 69 213 l 21 261 l 97 365 q 50 556 50 440 q 97 746 50 671 l 21 850 l 69 899 l 143 796 q 239 828 183 828 q 335 797 293 828 l 408 899 l 457 850 l 381 744 q 428 556 428 669 m 119 556 q 149 410 119 467 q 239 353 179 353 q 328 410 299 353 q 358 556 358 467 q 328 701 358 644 q 239 758 299 758 q 149 701 179 758 q 119 556 119 644 z "},"$":{"ha":550,"x_min":21,"x_max":529,"o":"m 529 324 q 475 162 529 221 q 310 97 421 103 l 310 -14 l 240 -14 l 240 100 q 76 189 132 113 q 21 421 21 265 l 90 421 q 126 239 90 297 q 240 169 161 181 l 240 543 q 88 638 142 579 q 35 794 35 697 q 87 945 35 886 q 240 1013 139 1004 l 240 1125 l 310 1125 l 310 1013 q 467 925 419 1000 q 515 739 515 850 l 446 739 q 310 942 446 921 l 310 589 q 425 531 379 560 q 500 451 471 501 q 529 324 529 400 m 104 794 q 140 686 104 726 q 240 617 176 646 l 240 943 q 136 899 168 936 q 104 794 104 861 m 310 167 q 426 212 393 172 q 460 324 460 251 q 419 441 460 399 q 310 514 379 483 l 310 167 z "},"€":{"ha":572,"x_min":21,"x_max":551,"o":"m 351 56 q 482 208 461 56 l 551 208 q 487 40 542 94 q 351 -14 432 -14 q 169 93 232 -14 q 93 425 107 200 l 21 425 l 21 494 l 90 494 l 90 550 l 21 550 l 21 619 l 92 619 q 160 1003 99 881 q 351 1125 222 1125 q 487 1071 432 1125 q 551 903 542 1017 l 482 903 q 351 1056 461 1056 q 209 952 253 1056 q 160 619 165 849 l 454 619 l 454 550 l 160 550 l 160 494 l 454 494 l 454 425 l 163 425 q 216 144 172 232 q 351 56 260 56 z "},"£":{"ha":544,"x_min":21,"x_max":524,"o":"m 183 419 q 196 283 196 335 q 172 153 196 210 q 90 58 147 97 l 524 58 l 524 0 l 21 0 l 21 58 q 102 153 78 97 q 126 283 126 210 q 114 419 126 335 l 21 419 l 21 489 l 101 489 l 94 524 q 67 684 76 617 q 58 817 58 751 q 123 1051 58 978 q 289 1125 188 1125 q 458 1043 392 1125 q 524 781 524 961 l 454 781 q 289 1056 454 1056 q 170 1001 213 1056 q 128 817 128 947 q 137 684 128 751 q 164 524 146 617 l 171 489 l 421 489 l 421 419 l 183 419 z "},"¥":{"ha":650,"x_min":21,"x_max":629,"o":"m 325 488 l 553 1111 l 629 1111 l 379 440 l 542 440 l 542 371 l 360 371 l 360 315 l 542 315 l 542 246 l 360 246 l 360 0 l 290 0 l 290 246 l 108 246 l 108 315 l 290 315 l 290 371 l 108 371 l 108 440 l 271 440 l 21 1111 l 97 1111 l 325 488 z "},"+":{"ha":611,"x_min":21,"x_max":590,"o":"m 340 486 l 590 486 l 590 417 l 340 417 l 340 167 l 271 167 l 271 417 l 21 417 l 21 486 l 271 486 l 271 736 l 340 736 l 340 486 z "},"−":{"ha":611,"x_min":21,"x_max":590,"o":"m 590 417 l 21 417 l 21 486 l 590 486 l 590 417 z "},"×":{"ha":494,"x_min":22,"x_max":474,"o":"m 425 679 l 474 629 l 297 453 l 474 278 l 425 228 l 249 404 l 71 226 l 22 276 l 200 454 l 22 631 l 71 679 l 249 503 l 425 679 z "},"÷":{"ha":611,"x_min":21,"x_max":590,"o":"m 306 576 q 276 588 288 576 q 264 618 264 600 q 276 647 264 635 q 306 660 288 660 q 335 647 322 660 q 347 618 347 635 q 335 588 347 600 q 306 576 322 576 m 590 424 l 21 424 l 21 493 l 590 493 l 590 424 m 306 257 q 276 269 288 257 q 264 299 264 281 q 276 328 264 315 q 306 340 288 340 q 335 328 322 340 q 347 299 347 315 q 335 269 347 281 q 306 257 322 257 z "},"=":{"ha":611,"x_min":21,"x_max":590,"o":"m 590 493 l 21 493 l 21 563 l 590 563 l 590 493 m 590 354 l 21 354 l 21 424 l 590 424 l 590 354 z "},"≠":{"ha":611,"x_min":21,"x_max":590,"o":"m 590 563 l 590 493 l 356 493 l 331 424 l 590 424 l 590 354 l 304 354 l 213 108 l 139 108 l 231 354 l 21 354 l 21 424 l 257 424 l 282 493 l 21 493 l 21 563 l 308 563 l 400 808 l 474 808 l 382 563 l 590 563 z "},">":{"ha":611,"x_min":21,"x_max":590,"o":"m 21 707 l 590 486 l 590 431 l 21 210 l 21 279 l 493 458 l 21 638 l 21 707 z "},"<":{"ha":611,"x_min":21,"x_max":590,"o":"m 21 431 l 21 486 l 590 707 l 590 638 l 118 458 l 590 279 l 590 210 l 21 431 z "},"≥":{"ha":611,"x_min":24,"x_max":593,"o":"m 24 707 l 593 486 l 593 431 l 92 236 l 593 236 l 593 167 l 24 167 l 24 279 l 496 458 l 24 638 l 24 707 z "},"≤":{"ha":611,"x_min":21,"x_max":590,"o":"m 21 486 l 590 707 l 590 638 l 118 458 l 590 279 l 590 167 l 21 167 l 21 236 l 522 236 l 21 431 l 21 486 z "},"±":{"ha":611,"x_min":21,"x_max":590,"o":"m 590 493 l 590 424 l 340 424 l 340 236 l 590 236 l 590 167 l 21 167 l 21 236 l 271 236 l 271 424 l 21 424 l 21 493 l 271 493 l 271 743 l 340 743 l 340 493 l 590 493 z "},"≈":{"ha":611,"x_min":21,"x_max":590,"o":"m 21 514 q 63 634 21 601 q 160 667 104 667 q 247 649 208 667 q 333 596 285 631 q 399 554 375 567 q 451 542 424 542 q 502 563 483 542 q 521 625 521 585 l 590 625 q 549 505 590 538 q 451 472 507 472 q 365 490 403 472 q 278 543 326 508 q 212 585 236 572 q 160 597 188 597 q 109 576 128 597 q 90 514 90 554 l 21 514 m 21 292 q 63 412 21 379 q 160 444 104 444 q 247 426 208 444 q 333 374 285 408 q 399 332 375 344 q 451 319 424 319 q 502 341 483 319 q 521 403 521 363 l 590 403 q 549 283 590 315 q 451 250 507 250 q 365 268 403 250 q 278 321 326 286 q 212 363 236 350 q 160 375 188 375 q 109 353 128 375 q 90 292 90 332 l 21 292 z "},"~":{"ha":611,"x_min":21,"x_max":590,"o":"m 21 403 q 63 523 21 490 q 160 556 104 556 q 247 538 208 556 q 333 485 285 519 q 399 443 375 456 q 451 431 424 431 q 502 452 483 431 q 521 514 521 474 l 590 514 q 549 394 590 426 q 451 361 507 361 q 365 379 403 361 q 278 432 326 397 q 212 474 236 461 q 160 486 188 486 q 109 465 128 486 q 90 403 90 443 l 21 403 z "},"¬":{"ha":611,"x_min":21,"x_max":590,"o":"m 21 424 l 21 493 l 590 493 l 590 231 l 521 231 l 521 424 l 21 424 z "},"^":{"ha":481,"x_min":21,"x_max":460,"o":"m 190 1111 l 290 1111 l 460 694 l 385 694 l 240 1050 l 96 694 l 21 694 l 190 1111 z "},"∅":{"ha":792,"x_min":21,"x_max":771,"o":"m 557 900 q 715 765 658 857 q 771 557 771 672 q 726 367 771 453 q 597 231 682 282 q 397 181 513 181 q 300 190 354 181 l 226 -14 l 153 -14 l 235 211 q 76 347 132 254 q 21 557 21 440 q 65 744 21 660 q 195 880 110 829 q 397 931 281 931 q 492 921 451 931 l 565 1125 l 639 1125 l 557 900 m 90 557 q 133 388 90 464 q 258 276 175 313 l 468 856 q 397 861 424 861 q 227 819 296 861 q 124 707 158 776 q 90 557 90 638 m 397 250 q 566 292 497 250 q 668 405 635 335 q 701 557 701 475 q 658 724 701 649 q 533 835 615 800 l 325 257 q 397 250 363 250 z "},"∞":{"ha":778,"x_min":21,"x_max":757,"o":"m 604 639 q 710 594 664 639 q 757 458 757 549 q 710 323 757 368 q 604 278 664 278 q 499 313 550 278 q 389 411 447 349 q 279 313 331 349 q 174 278 228 278 q 67 323 114 278 q 21 458 21 368 q 67 594 21 549 q 174 639 114 639 q 279 603 228 639 q 389 506 331 568 q 499 603 447 568 q 604 639 550 639 m 181 347 q 254 375 217 347 q 344 458 292 403 q 254 542 292 514 q 181 569 217 569 q 90 458 90 569 q 181 347 90 347 m 599 347 q 665 376 643 347 q 688 458 688 406 q 665 540 688 511 q 599 569 643 569 q 523 541 561 569 q 433 458 485 513 q 523 376 485 404 q 599 347 561 347 z "},"∫":{"ha":433,"x_min":21,"x_max":413,"o":"m 21 -97 q 121 -33 88 -97 q 165 125 154 31 q 183 383 176 219 q 207 684 192 569 q 270 878 222 799 q 413 958 318 958 l 413 903 q 313 839 346 903 q 268 681 279 775 q 250 422 257 586 q 226 122 242 236 q 163 -73 211 7 q 21 -153 115 -153 l 21 -97 z "},"∏":{"ha":611,"x_min":21,"x_max":590,"o":"m 21 965 l 590 965 l 590 896 l 478 896 l 478 -153 l 408 -153 l 408 896 l 201 896 l 201 -153 l 132 -153 l 132 896 l 21 896 l 21 965 z "},"∑":{"ha":611,"x_min":21,"x_max":590,"o":"m 21 965 l 590 965 l 590 896 l 103 896 l 397 403 l 103 -90 l 590 -90 l 590 -160 l 21 -160 l 21 -90 l 22 -90 l 319 401 l 22 896 l 21 896 l 21 965 z "},"√":{"ha":747,"x_min":21,"x_max":726,"o":"m 94 344 l 261 -83 l 482 958 l 726 958 l 726 903 l 538 903 l 311 -153 l 218 -153 l 21 344 l 94 344 z "},"∂":{"ha":658,"x_min":21,"x_max":638,"o":"m 183 958 q 517 689 397 865 q 638 213 638 513 q 599 20 638 103 q 491 -108 561 -62 q 329 -153 421 -153 q 173 -109 243 -153 q 62 16 103 -65 q 21 203 21 97 q 51 361 21 285 q 147 488 81 438 q 315 538 213 538 q 459 500 399 538 q 554 399 519 463 q 424 701 522 581 q 156 894 326 821 l 183 958 m 329 -83 q 505 -1 442 -83 q 568 213 568 81 q 485 409 557 350 q 315 468 413 468 q 149 394 207 468 q 90 203 90 319 q 122 50 90 115 q 208 -49 154 -15 q 329 -83 263 -83 z "},"%":{"ha":694,"x_min":21,"x_max":674,"o":"m 190 708 q 319 768 278 708 q 360 917 360 828 q 319 1065 360 1006 q 190 1125 278 1125 q 62 1065 103 1125 q 21 917 21 1006 q 62 768 21 828 q 190 708 103 708 m 190 778 q 90 917 90 778 q 190 1056 90 1056 q 290 917 290 1056 q 190 778 290 778 m 590 1125 l 178 -14 l 104 -14 l 517 1125 l 590 1125 m 504 -14 q 633 46 592 -14 q 674 194 674 106 q 633 343 674 283 q 504 403 592 403 q 376 343 417 403 q 335 194 335 283 q 376 46 335 106 q 504 -14 417 -14 m 504 56 q 404 194 404 56 q 504 333 404 333 q 604 194 604 333 q 504 56 604 56 z "},"‰":{"ha":1075,"x_min":21,"x_max":1054,"o":"m 190 708 q 319 768 278 708 q 360 917 360 828 q 319 1065 360 1006 q 190 1125 278 1125 q 62 1065 103 1125 q 21 917 21 1006 q 62 768 21 828 q 190 708 103 708 m 190 778 q 90 917 90 778 q 190 1056 90 1056 q 290 917 290 1056 q 190 778 290 778 m 590 1125 l 178 -14 l 104 -14 l 517 1125 l 590 1125 m 504 -14 q 633 46 592 -14 q 674 194 674 106 q 633 343 674 283 q 504 403 592 403 q 376 343 417 403 q 335 194 335 283 q 376 46 335 106 q 504 -14 417 -14 m 504 56 q 404 194 404 56 q 504 333 404 333 q 604 194 604 333 q 504 56 604 56 m 885 -14 q 1013 46 972 -14 q 1054 194 1054 106 q 1013 343 1054 283 q 885 403 972 403 q 756 343 797 403 q 715 194 715 283 q 756 46 715 106 q 885 -14 797 -14 m 885 56 q 785 194 785 56 q 885 333 785 333 q 985 194 985 333 q 885 56 985 56 z "},"↑":{"ha":583,"x_min":21,"x_max":563,"o":"m 326 176 l 257 176 l 257 649 q 174 539 232 586 q 21 482 115 492 l 21 551 q 171 619 108 561 q 257 746 233 676 l 326 746 q 413 619 350 676 q 563 551 475 561 l 563 482 q 410 539 468 492 q 326 649 351 586 l 326 176 z "},"↗":{"ha":524,"x_min":21,"x_max":503,"o":"m 69 210 l 21 260 l 356 593 q 253 572 307 572 q 69 642 156 572 l 119 692 q 292 632 193 632 q 424 663 363 632 l 472 613 q 443 483 443 557 q 503 308 443 383 l 453 260 q 383 442 383 344 q 404 544 383 496 l 69 210 z "},"→":{"ha":611,"x_min":21,"x_max":590,"o":"m 21 424 l 21 493 l 493 493 q 383 576 431 518 q 326 729 336 635 l 396 729 q 463 579 406 642 q 590 493 521 517 l 590 424 q 463 338 521 400 q 396 188 406 275 l 326 188 q 383 340 336 282 q 493 424 431 399 l 21 424 z "},"↘":{"ha":522,"x_min":21,"x_max":501,"o":"m 21 658 l 69 707 l 404 374 q 382 476 382 424 q 453 658 382 572 l 501 610 q 443 436 443 533 q 472 306 443 364 l 424 256 q 290 286 363 286 q 118 226 192 286 l 69 275 q 253 346 156 346 q 354 325 308 346 l 21 658 z "},"↓":{"ha":583,"x_min":21,"x_max":563,"o":"m 257 742 l 326 742 l 326 269 q 410 379 351 332 q 563 436 468 426 l 563 367 q 413 299 475 357 q 326 172 350 242 l 257 172 q 171 299 233 242 q 21 367 108 357 l 21 436 q 174 379 115 426 q 257 269 232 332 l 257 742 z "},"↙":{"ha":524,"x_min":21,"x_max":503,"o":"m 454 700 l 503 650 l 169 317 q 271 338 215 338 q 454 268 368 338 l 404 218 q 232 278 331 278 q 100 247 161 278 l 51 297 q 81 426 81 353 q 21 601 81 526 l 71 650 q 140 468 140 565 q 119 365 140 414 l 454 700 z "},"←":{"ha":611,"x_min":21,"x_max":590,"o":"m 118 424 q 228 340 181 399 q 285 188 275 282 l 215 188 q 148 338 206 275 q 21 424 90 400 l 21 493 q 148 579 90 517 q 215 729 206 642 l 285 729 q 228 576 275 635 q 118 493 181 518 l 590 493 l 590 424 l 118 424 z "},"↖":{"ha":522,"x_min":21,"x_max":501,"o":"m 501 310 l 453 261 l 118 594 q 140 492 140 544 q 69 310 140 396 l 21 358 q 79 532 79 435 q 50 663 79 604 l 99 713 q 232 682 160 682 q 404 742 331 682 l 453 693 q 269 622 367 622 q 168 643 214 622 l 501 310 z "},"↔":{"ha":778,"x_min":21,"x_max":757,"o":"m 21 493 q 148 579 90 517 q 215 729 206 642 l 285 729 q 228 576 275 635 q 118 493 181 518 l 660 493 q 550 576 597 518 q 493 729 503 635 l 563 729 q 630 579 572 642 q 757 493 688 517 l 757 424 q 630 338 688 400 q 563 188 572 275 l 493 188 q 550 340 503 282 q 660 424 597 399 l 118 424 q 228 340 181 399 q 285 188 275 282 l 215 188 q 148 338 206 275 q 21 424 90 400 l 21 493 z "},"↕":{"ha":583,"x_min":21,"x_max":563,"o":"m 326 826 q 413 699 350 757 q 563 632 475 642 l 563 563 q 410 619 468 572 q 326 729 351 667 l 326 188 q 410 297 351 250 q 563 354 468 344 l 563 285 q 413 217 475 275 q 326 90 350 160 l 257 90 q 171 217 233 160 q 21 285 108 275 l 21 354 q 174 297 115 344 q 257 188 232 250 l 257 729 q 174 619 232 667 q 21 563 115 572 l 21 632 q 171 699 108 642 q 257 826 233 757 l 326 826 z "},"◊":{"ha":481,"x_min":21,"x_max":460,"o":"m 190 938 l 290 938 l 460 521 l 290 104 l 190 104 l 21 521 l 190 938 m 96 521 l 240 165 l 385 521 l 240 876 l 96 521 z "},"@":{"ha":763,"x_min":21,"x_max":742,"o":"m 501 781 l 571 781 l 571 338 q 582 203 571 239 q 618 168 593 168 q 659 231 646 168 q 672 458 672 293 q 615 825 672 692 q 406 958 558 958 q 168 828 246 958 q 90 472 90 697 q 167 114 90 242 q 426 -14 244 -14 q 553 -3 497 -14 q 663 28 608 7 l 663 -42 q 553 -73 608 -62 q 426 -83 497 -83 q 115 63 208 -83 q 21 472 21 208 q 115 879 21 731 q 406 1028 210 1028 q 668 876 594 1028 q 742 458 742 724 q 716 188 742 278 q 618 99 690 99 q 537 137 563 99 q 504 258 511 175 q 444 182 481 208 q 365 156 408 156 q 232 238 276 156 q 188 475 188 321 q 232 712 188 629 q 365 794 276 794 q 443 769 408 794 q 501 696 478 744 l 501 781 m 386 225 q 474 283 447 225 q 501 475 501 342 q 474 666 501 607 q 386 725 446 725 q 257 475 257 725 q 386 225 257 225 z "},"&":{"ha":629,"x_min":21,"x_max":608,"o":"m 543 644 l 608 644 l 608 483 l 543 483 l 543 342 q 478 73 543 160 q 279 -14 413 -14 q 86 63 151 -14 q 21 272 21 139 q 157 564 21 493 q 21 839 21 631 q 86 1049 21 972 q 279 1125 151 1125 q 477 1041 411 1125 q 543 783 543 957 l 358 783 q 337 906 358 871 q 279 940 315 940 q 206 811 206 940 q 235 681 206 717 q 332 644 264 644 l 358 644 l 358 715 l 543 715 l 543 644 m 358 483 l 332 483 q 259 467 286 483 q 219 412 232 451 q 206 300 206 372 q 279 171 206 171 q 338 208 317 171 q 358 342 358 244 l 358 483 z "},"¶":{"ha":435,"x_min":21,"x_max":414,"o":"m 275 1111 l 275 0 l 206 0 l 206 628 q 100 646 139 628 q 41 716 61 664 q 21 869 21 768 q 41 1023 21 971 q 100 1093 61 1075 q 206 1111 139 1111 l 275 1111 m 414 0 l 344 0 l 344 1111 l 414 1111 l 414 0 z "},"§":{"ha":522,"x_min":21,"x_max":501,"o":"m 386 349 q 463 280 439 319 q 488 178 488 240 q 434 41 488 96 q 268 -14 381 -14 q 35 261 35 -14 l 104 261 q 140 111 104 167 q 268 56 175 56 q 385 88 353 56 q 418 178 418 121 q 371 281 418 244 q 224 347 324 318 q 65 413 110 381 q 21 501 21 444 q 51 591 21 563 q 136 628 82 619 q 59 697 83 657 q 35 799 35 736 q 88 935 35 881 q 254 990 142 990 q 488 715 488 990 l 418 715 q 383 865 418 810 q 254 921 347 921 q 137 888 169 921 q 104 799 104 856 q 151 695 104 732 q 299 629 199 658 q 457 564 413 596 q 501 475 501 532 q 471 385 501 414 q 386 349 440 357 m 90 517 q 106 472 90 489 q 153 440 121 454 q 251 404 185 426 l 253 404 q 351 385 311 385 q 432 460 432 385 q 417 505 432 488 q 369 536 401 522 q 271 572 338 550 l 269 572 q 171 592 211 592 q 90 517 90 592 z "},"©":{"ha":853,"x_min":21,"x_max":832,"o":"m 426 -14 q 738 138 643 -14 q 832 556 832 289 q 738 974 832 822 q 426 1125 643 1125 q 115 974 210 1125 q 21 556 21 822 q 115 138 21 289 q 426 -14 210 -14 m 426 56 q 167 189 244 56 q 90 556 90 322 q 167 922 90 789 q 426 1056 244 1056 q 685 922 608 1056 q 763 556 763 789 q 685 189 763 322 q 426 56 608 56 m 590 614 q 545 754 590 703 q 433 806 500 806 q 308 744 353 806 q 263 556 263 683 q 308 367 263 428 q 433 306 353 306 q 546 357 501 306 q 590 497 590 408 l 660 497 q 632 367 660 426 q 553 272 604 307 q 433 236 501 236 q 256 322 319 236 q 193 556 193 407 q 256 790 193 704 q 433 875 319 875 q 553 840 501 875 q 632 744 604 804 q 660 614 660 685 l 590 614 z "},"®":{"ha":575,"x_min":21,"x_max":554,"o":"m 288 431 q 496 533 438 431 q 554 778 554 636 q 496 1022 554 919 q 288 1125 438 1125 q 79 1022 138 1125 q 21 778 21 919 q 79 533 21 636 q 288 431 138 431 m 288 500 q 131 584 172 500 q 90 778 90 668 q 131 972 90 888 q 288 1056 172 1056 q 444 972 403 1056 q 485 778 485 888 q 444 584 485 668 q 288 500 403 500 m 256 628 l 186 628 l 186 936 l 283 936 q 379 908 350 936 q 408 825 408 879 q 365 732 408 757 l 407 628 l 332 628 l 297 714 l 256 714 l 256 628 m 256 867 l 256 783 l 283 783 q 326 793 313 783 q 339 825 339 803 q 326 857 339 847 q 283 867 313 867 l 256 867 z "},"™":{"ha":650,"x_min":21,"x_max":629,"o":"m 21 1042 l 21 1111 l 249 1111 l 249 1042 l 169 1042 l 169 431 l 100 431 l 100 1042 l 21 1042 m 346 1111 l 453 565 l 560 1111 l 629 1111 l 629 431 l 560 431 l 560 776 l 488 431 l 418 431 l 346 776 l 346 431 l 276 431 l 276 1111 l 346 1111 z "},"°":{"ha":381,"x_min":21,"x_max":360,"o":"m 190 708 q 319 768 278 708 q 360 917 360 828 q 319 1065 360 1006 q 190 1125 278 1125 q 62 1065 103 1125 q 21 917 21 1006 q 62 768 21 828 q 190 708 103 708 m 190 778 q 90 917 90 778 q 190 1056 90 1056 q 290 917 290 1056 q 190 778 290 778 z "},"|":{"ha":111,"x_min":21,"x_max":90,"o":"m 90 -14 l 21 -14 l 21 1125 l 90 1125 l 90 -14 z "},"¦":{"ha":111,"x_min":21,"x_max":90,"o":"m 90 681 l 21 681 l 21 1125 l 90 1125 l 90 681 m 90 -14 l 21 -14 l 21 431 l 90 431 l 90 -14 z "},"†":{"ha":269,"x_min":21,"x_max":249,"o":"m 169 1111 l 169 903 l 249 903 l 249 833 l 169 833 l 169 431 l 100 431 l 100 833 l 21 833 l 21 903 l 100 903 l 100 1111 l 169 1111 z "},"‡":{"ha":269,"x_min":21,"x_max":249,"o":"m 169 903 l 249 903 l 249 833 l 169 833 l 169 694 l 249 694 l 249 625 l 169 625 l 169 431 l 100 431 l 100 625 l 21 625 l 21 694 l 100 694 l 100 833 l 21 833 l 21 903 l 100 903 l 100 1111 l 169 1111 l 169 903 z "},"̈":{"ha":0,"x_min":-354,"x_max":-14,"o":"m -287 988 q -335 1006 -315 988 q -354 1053 -354 1024 q -335 1101 -354 1083 q -287 1119 -315 1119 q -242 1101 -261 1119 q -222 1053 -222 1083 q -242 1006 -222 1025 q -287 988 -261 988 m -79 988 q -126 1006 -107 988 q -146 1053 -146 1024 q -126 1101 -146 1083 q -79 1119 -107 1119 q -33 1101 -53 1119 q -14 1053 -14 1083 q -33 1006 -14 1025 q -79 988 -53 988 z "},"̇":{"ha":0,"x_min":-149,"x_max":-17,"o":"m -83 988 q -130 1006 -111 988 q -149 1053 -149 1024 q -130 1101 -149 1083 q -83 1119 -111 1119 q -36 1101 -56 1119 q -17 1053 -17 1083 q -37 1006 -17 1025 q -83 988 -57 988 z "},"̀":{"ha":0,"x_min":-410,"x_max":-14,"o":"m -14 1039 l -28 986 l -410 1088 l -396 1142 l -14 1039 z "},"́":{"ha":0,"x_min":-410,"x_max":-14,"o":"m -14 1088 l -396 986 l -410 1039 l -28 1142 l -14 1088 z "},"̋":{"ha":0,"x_min":-410,"x_max":-14,"o":"m -250 1142 l -167 1142 l -312 986 l -410 986 l -250 1142 m -97 1142 l -14 1142 l -160 986 l -257 986 l -97 1142 z "},"̂":{"ha":0,"x_min":-410,"x_max":-14,"o":"m -258 1142 l -161 1142 l -14 986 l -104 986 l -210 1100 l -319 986 l -410 986 l -258 1142 z "},"̌":{"ha":0,"x_min":-410,"x_max":-14,"o":"m -14 1142 l -161 986 l -258 986 l -410 1142 l -319 1142 l -210 1028 l -104 1142 l -14 1142 z "},"̆":{"ha":0,"x_min":-410,"x_max":-14,"o":"m -210 986 q -352 1022 -294 986 q -410 1142 -410 1058 l -340 1142 q -299 1065 -340 1089 q -210 1042 -258 1042 q -122 1065 -161 1042 q -83 1142 -83 1089 l -14 1142 q -69 1022 -14 1058 q -210 986 -125 986 z "},"̊":{"ha":0,"x_min":-197,"x_max":-14,"o":"m -106 986 q -170 1013 -143 986 q -197 1078 -197 1039 q -170 1143 -197 1117 q -106 1169 -143 1169 q -41 1143 -68 1169 q -14 1078 -14 1117 q -41 1013 -14 1039 q -106 986 -68 986 m -106 1042 q -79 1052 -89 1042 q -69 1078 -69 1063 q -79 1103 -69 1093 q -106 1114 -89 1114 q -132 1103 -122 1114 q -142 1078 -142 1093 q -132 1052 -142 1063 q -106 1042 -122 1042 z "},"̃":{"ha":0,"x_min":-410,"x_max":-14,"o":"m -410 1003 q -299 1142 -410 1142 q -235 1126 -258 1142 q -187 1082 -212 1111 q -160 1051 -172 1061 q -129 1042 -147 1042 q -83 1125 -83 1042 l -14 1125 q -125 986 -14 986 q -188 1001 -165 986 q -236 1046 -211 1017 q -264 1076 -251 1067 q -294 1086 -276 1086 q -340 1003 -340 1086 l -410 1003 z "},"̄":{"ha":0,"x_min":-410,"x_max":-14,"o":"m -14 1036 l -410 1036 l -410 1092 l -14 1092 l -14 1036 z "},"̒":{"ha":0,"x_min":-143,"x_max":-14,"o":"m -81 1093 q -53 1100 -68 1100 q -24 1086 -35 1100 q -14 1051 -14 1072 q -31 1005 -14 1024 q -76 986 -49 986 q -126 1009 -110 986 q -143 1071 -143 1032 q -117 1148 -143 1108 q -32 1208 -92 1188 l -32 1147 q -65 1124 -54 1136 q -81 1093 -76 1111 z "},"̦":{"ha":0,"x_min":-143,"x_max":-14,"o":"m -76 -197 q -89 -199 -81 -199 q -128 -183 -114 -199 q -143 -142 -143 -167 q -124 -95 -143 -114 q -78 -76 -106 -76 q -33 -94 -51 -76 q -14 -147 -14 -112 q -125 -312 -14 -258 l -125 -251 q -92 -228 -103 -240 q -76 -197 -81 -215 z "},"̧":{"ha":0,"x_min":-265,"x_max":-14,"o":"m -215 0 l -146 0 l -168 -93 q -115 -89 -139 -89 q -14 -176 -14 -89 q -53 -252 -14 -228 q -143 -282 -92 -276 q -265 -287 -194 -287 l -264 -232 q -124 -222 -164 -232 q -83 -176 -83 -211 q -99 -142 -83 -153 q -149 -132 -115 -132 q -236 -140 -167 -132 l -215 0 z "},"̨":{"ha":0,"x_min":-293,"x_max":-15,"o":"m -29 0 q -156 -65 -117 -33 q -196 -139 -196 -97 q -156 -206 -196 -183 q -15 -232 -115 -229 l -71 -287 q -230 -260 -167 -287 q -293 -151 -293 -233 q -237 -50 -293 -86 q -99 0 -182 -14 l -29 0 z "},"̵":{"ha":0,"x_min":-410,"x_max":-14,"o":"m -14 431 l -410 431 l -410 486 l -14 486 l -14 431 z "},"̶":{"ha":0,"x_min":-410,"x_max":-14,"o":"m -14 431 l -410 431 l -410 486 l -14 486 l -14 431 z "},"̷":{"ha":0,"x_min":-493,"x_max":-7,"o":"m -7 1125 l -419 -14 l -493 -14 l -81 1125 l -7 1125 z "},"̸":{"ha":0,"x_min":-493,"x_max":-7,"o":"m -7 1125 l -419 -14 l -493 -14 l -81 1125 l -7 1125 z "},"¨":{"ha":368,"x_min":14,"x_max":354,"o":"m 81 988 q 33 1006 53 988 q 14 1053 14 1024 q 33 1101 14 1083 q 81 1119 53 1119 q 126 1101 107 1119 q 146 1053 146 1083 q 126 1006 146 1025 q 81 988 107 988 m 289 988 q 242 1006 261 988 q 222 1053 222 1024 q 242 1101 222 1083 q 289 1119 261 1119 q 335 1101 315 1119 q 354 1053 354 1083 q 335 1006 354 1025 q 289 988 315 988 z "},"˙":{"ha":167,"x_min":18,"x_max":150,"o":"m 83 988 q 37 1006 56 988 q 18 1053 18 1024 q 37 1101 18 1083 q 83 1119 56 1119 q 131 1101 111 1119 q 150 1053 150 1083 q 130 1006 150 1025 q 83 988 110 988 z "},"`":{"ha":424,"x_min":14,"x_max":410,"o":"m 410 1039 l 396 986 l 14 1088 l 28 1142 l 410 1039 z "},"´":{"ha":424,"x_min":14,"x_max":410,"o":"m 410 1088 l 28 986 l 14 1039 l 396 1142 l 410 1088 z "},"˝":{"ha":424,"x_min":14,"x_max":410,"o":"m 174 1142 l 257 1142 l 111 986 l 14 986 l 174 1142 m 326 1142 l 410 1142 l 264 986 l 167 986 l 326 1142 z "},"ˆ":{"ha":424,"x_min":14,"x_max":410,"o":"m 165 1142 l 263 1142 l 410 986 l 319 986 l 214 1100 l 104 986 l 14 986 l 165 1142 z "},"ˇ":{"ha":424,"x_min":14,"x_max":410,"o":"m 410 1142 l 263 986 l 165 986 l 14 1142 l 104 1142 l 214 1028 l 319 1142 l 410 1142 z "},"˘":{"ha":424,"x_min":14,"x_max":410,"o":"m 214 986 q 72 1022 129 986 q 14 1142 14 1058 l 83 1142 q 124 1065 83 1089 q 214 1042 165 1042 q 301 1065 263 1042 q 340 1142 340 1089 l 410 1142 q 354 1022 410 1058 q 214 986 299 986 z "},"˚":{"ha":211,"x_min":14,"x_max":197,"o":"m 106 986 q 41 1013 68 986 q 14 1078 14 1039 q 41 1143 14 1117 q 106 1169 68 1169 q 170 1143 143 1169 q 197 1078 197 1117 q 170 1013 197 1039 q 106 986 143 986 m 106 1042 q 132 1052 122 1042 q 142 1078 142 1063 q 132 1103 142 1093 q 106 1114 122 1114 q 79 1103 89 1114 q 69 1078 69 1093 q 79 1052 69 1063 q 106 1042 89 1042 z "},"˜":{"ha":424,"x_min":14,"x_max":410,"o":"m 14 1003 q 125 1142 14 1142 q 188 1126 165 1142 q 236 1082 211 1111 q 264 1051 251 1061 q 294 1042 276 1042 q 340 1125 340 1042 l 410 1125 q 299 986 410 986 q 235 1001 258 986 q 188 1046 213 1017 q 160 1076 172 1067 q 129 1086 147 1086 q 83 1003 83 1086 l 14 1003 z "},"¯":{"ha":424,"x_min":14,"x_max":410,"o":"m 410 1036 l 14 1036 l 14 1092 l 410 1092 l 410 1036 z "},"¸":{"ha":279,"x_min":14,"x_max":265,"o":"m 64 0 l 133 0 l 111 -93 q 164 -89 140 -89 q 265 -176 265 -89 q 226 -252 265 -228 q 136 -282 188 -276 q 14 -287 85 -287 l 15 -232 q 156 -222 115 -232 q 196 -176 196 -211 q 180 -142 196 -153 q 131 -132 164 -132 q 43 -140 113 -132 l 64 0 z "},"˛":{"ha":279,"x_min":-14,"x_max":264,"o":"m 250 0 q 123 -65 163 -33 q 83 -139 83 -97 q 124 -206 83 -183 q 264 -232 164 -229 l 208 -287 q 49 -260 113 -287 q -14 -151 -14 -233 q 42 -50 -14 -86 q 181 0 97 -14 l 250 0 z "}}}
